<?xml version="1.0" encoding="UTF-8" standalone="no"?>
<svg
   viewBox="0 0 237.31111 261.42682"
   version="1.1"
   id="svg67"
   sodipodi:docname="brush.svg"
   inkscape:version="1.3.2 (091e20e, 2023-11-25, custom)"
   width="237.31111"
   height="261.42682"
   xmlns:inkscape="http://www.inkscape.org/namespaces/inkscape"
   xmlns:sodipodi="http://sodipodi.sourceforge.net/DTD/sodipodi-0.dtd"
   xmlns="http://www.w3.org/2000/svg"
   xmlns:svg="http://www.w3.org/2000/svg">
  <sodipodi:namedview
     id="namedview67"
     pagecolor="#505050"
     bordercolor="#ffffff"
     borderopacity="1"
     inkscape:showpageshadow="0"
     inkscape:pageopacity="0"
     inkscape:pagecheckerboard="1"
     inkscape:deskcolor="#505050"
     inkscape:zoom="1.1610693"
     inkscape:cx="100.76918"
     inkscape:cy="156.32142"
     inkscape:window-width="1920"
     inkscape:window-height="1017"
     inkscape:window-x="-8"
     inkscape:window-y="-8"
     inkscape:window-maximized="1"
     inkscape:current-layer="svg67" />
  <defs
     id="defs1">
    <clipPath
       id="freepik--clip-path--inject-344">
      <path
         d="m 214.76,198.9 c -10.38,0 -20.07,-2.29 -27.27,-6.45 -6.37,-3.68 -9.87,-8.27 -9.87,-12.94 0,-4.67 -15.68,-118.17 -15.68,-118.17 l 37.59,-30.91 74.65,27.1 c 0,0 -21.72,117.32 -21.72,122 0,4.68 -3.93,9.51 -10.29,13.18 -7.17,4.14 -17.03,6.19 -27.41,6.19 z"
         style="fill:none"
         id="path1" />
    </clipPath>
  </defs>
  <circle
     style="opacity:0.5;fill:#e6e6e6;fill-opacity:0.729002;stroke-width:2"
     id="path70"
     cx="118.75761"
     cy="129.28268"
     r="116.32156" />
  <g
     id="freepik--character-1--inject-344"
     transform="translate(0,-128.32998)">
    <g
       id="freepik--back-arm--inject-344">
      <path
         d="m 107.47,198.74 c 4.46,5.33 12.59,15.5 16.77,20.75 a 15.22,15.22 0 0 1 3.39,9.69 c 0,2.61 -0.74,4.79 -3.3,3.68 -1.84,-0.81 -3,-1.76 -5.71,-4.42 -2.42,-2.39 -11,-12.7 -11,-12.7 0,0 -6.58,-17.31 -10.2,-18.41 a 16.78,16.78 0 0 0 -6.13,-0.82 c 4.37,-1.51 10.52,-4.51 16.18,2.23 z"
         style="fill:#f28f8f"
         id="path2" />
      <path
         d="m 89.13,193.05 c 4.47,-3.36 12,-2.49 16.22,2.57 3.07,3.71 10.36,12.76 10.36,12.76 a 15.54,15.54 0 0 1 -9.39,8.42 z"
         style="fill:#e0e0e0"
         id="path3" />
    </g>
    <g
       id="freepik--Brush--inject-344">
      <path
         d="m 174.68,312.45 v 0 c 0,0 -12.56,-45.53 -30.27,-88.45 -17.57,-42.51 -44.66,-85.64 -49.19,-92.15 l -0.06,-0.08 -0.07,-0.1 v 0 a 3.43,3.43 0 0 0 -6.17,2.06 3.33,3.33 0 0 0 0.09,0.78 v 0 c 0,0 12,58.88 29.33,100.69 17.33,41.81 41,83.65 41,83.65 v 0 a 4.39,4.39 0 0 0 3.39,1.87 13.12,13.12 0 0 0 10.94,-4.53 4.4,4.4 0 0 0 1.01,-3.74 z"
         style="fill:#f3cc19"
         id="path4" />
      <path
         d="m 88.91,133.77 a 3.33,3.33 0 0 0 0.09,0.78 v 0 c 0,0 12,58.88 29.33,100.69 11.63,28.13 26.14,56.26 34.4,71.67 l 9.06,-5.74 c 0,0 -72.13,-169.54 -69.44,-170.83 a 3.43,3.43 0 0 0 -3.44,3.43 z"
         style="opacity:0.1"
         id="path5" />
      <path
         d="m 159.29,318.89 c -1.46,7.35 -4,16.79 0.62,29.05 5.21,13.92 21,17.76 28.58,17.77 10.57,0 17.26,-3.92 17.26,-3.92 0,0 -5.47,-2.1 -7.73,-10 a 26.53,26.53 0 0 1 -0.82,-5.26 c -0.49,-6.4 -0.7,-13.37 -6.29,-21.1 a 37,37 0 0 0 -16.22,-13 z"
         style="fill:#ebebeb"
         id="path6" />
      <path
         d="m 198,351.79 a 26.53,26.53 0 0 1 -0.82,-5.26 c 0,0.05 -1.91,8.34 -6.58,7.85 -4.67,-0.49 -6,-5.46 -12.21,-5.46 -7.55,0 -10.15,6.34 -16.62,2.92 6.48,10.89 19.83,13.86 26.7,13.87 10.57,0 17.26,-3.92 17.26,-3.92 0,0 -5.45,-2.1 -7.73,-10 z"
         style="display:inline;fill:#0000ff"
         id="path7" />
      <path
         d="m 178.28,354.46 c -12.22,-8.47 -9.92,-31 -9.56,-34.67 l -9.43,-0.9 c -1.46,7.35 -4,16.79 0.62,29.05 5.21,13.92 21,17.76 28.58,17.77 10.57,0 17.26,-3.92 17.26,-3.92 0,0 -13.16,2.6 -27.47,-7.33 z"
         style="opacity:0.1"
         id="path8" />
      <path
         d="m 159.29,318.89 a 4.39,4.39 0 0 0 3.39,1.87 13.12,13.12 0 0 0 10.94,-4.53 4.41,4.41 0 0 0 1.07,-3.78 c -1.78,-6.32 -3.83,-13.17 -6.06,-20.37 0.44,1.4 0,3.12 -1.31,4.88 a 16.51,16.51 0 0 1 -13.81,5.72 c -2.26,-0.29 -3.78,-1.27 -4.43,-2.61 3.92,7.33 7.58,14.18 10.21,18.82 z"
         style="fill:#455a64"
         id="path9" />
      <path
         d="m 161.79,301.17 a 15.64,15.64 0 0 1 -8.28,1.51 c -2.26,-0.29 -3.78,-1.27 -4.43,-2.61 3.9,7.33 7.58,14.18 10.21,18.82 a 4.39,4.39 0 0 0 3.39,1.87 12.19,12.19 0 0 0 6,-1 l 0.11,-0.19 -7,-18.43 z"
         style="fill:#37474f"
         id="path10" />
    </g>
    <g
       id="freepik--Boy--inject-344">
      <circle
         cx="95.449997"
         cy="166.61"
         r="10.85"
         transform="rotate(-13.28,95.482925,166.65924)"
         style="fill:#263238"
         id="circle10" />
      <rect
         x="69.470001"
         y="350.13"
         width="7.6399999"
         height="13.08"
         transform="rotate(180,73.295,356.675)"
         style="fill:#ffa8a7"
         id="rect10" />
      <polygon
         points="95.96,349.44 103.6,349.7 103.98,335.86 96.35,335.6 "
         style="fill:#ffa8a7"
         id="polygon10" />
      <path
         d="m 70,246.46 c 0,7.3 -1,51.51 -1,51.51 -0.18,2.1 -2.14,6 -1.72,14 0.58,10.95 1.53,39.43 1.53,39.43 0,0 3.58,3.55 8.64,0 0,0 6.92,-39.39 8.28,-50.25 C 87,291.71 89,266 89,266 l 7.08,30.29 c 0,0 -1.25,7.12 -1.52,12.14 -0.27,5.02 1.29,31.34 1.29,31.34 a 8.36,8.36 0 0 0 8.32,0.31 c 0,0 6.13,-39.69 6.92,-44.23 0.79,-4.54 -5.37,-49.37 -5.37,-49.37 z"
         style="fill:#37474f"
         id="path11" />
      <path
         d="m 77.32,193.69 a 8.36,8.36 0 0 0 -6.72,6.41 27.05,27.05 0 0 0 -0.62,5.8 v 40.56 c 5.35,5.83 24,8.54 35.73,0 0,0 -0.23,-35.82 -1.11,-41.71 -1.52,-10.23 -6.41,-13.87 -11.33,-13.49 L 81.48,193 Z"
         style="fill:#f0f0f0"
         id="path12" />
      <path
         d="m 76.7,174.32 c 0,0 1.76,8.26 2.46,9.62 a 3.78,3.78 0 0 0 2.16,1.74 l -0.12,-5.81 z"
         style="fill:#263238"
         id="path13" />
      <path
         d="m 78.91,162.49 a 4.08,4.08 0 0 0 -3.37,1.19 c -1.45,1.48 -0.64,6.11 1.16,10.64 l 3.31,0.38 z"
         style="fill:#263238"
         id="path14" />
      <path
         d="m 81,174.71 c -0.66,0.39 -1.61,-0.88 -2.43,-1.74 -0.82,-0.86 -3.49,-2 -4.82,0.78 -1.33,2.78 1.18,6.65 3.28,7.31 3.63,1.14 4.17,-1.19 4.17,-1.19 L 81.48,193 a 11.66,11.66 0 0 0 8.8,6.68 c 6.43,0.87 5.11,-4.43 3,-7 v -4 a 23.24,23.24 0 0 0 4.89,0.26 c 2.67,-0.42 4.35,-2.52 5.15,-5.41 1.3,-4.63 1.8,-8.38 0.69,-17.49 -1.2,-10 -12.83,-10.1 -19.1,-6.15 -6.27,3.95 -3.91,14.82 -3.91,14.82 z"
         style="fill:#ffa8a7"
         id="path15" />
      <path
         d="m 81,175.82 c -0.33,0 -1.6,-2.1 -2.43,-2.85 -1.14,-1 0.34,-10.48 0.34,-10.48 a 4.45,4.45 0 0 1 1.1,-4.77 c 1.57,-1.72 4.19,-1.92 8.67,-2.62 2.34,-0.37 5.9,-1 8.25,-1.46 2.8,-0.52 5.12,-1.07 7.09,0.65 a 5,5 0 0 1 1.38,5.56 4.78,4.78 0 0 1 -0.8,1.19 4.63,4.63 0 0 1 -2,1.38 c 0,0 -1.22,1.09 -5.47,1.6 A 62.93,62.93 0 0 1 85.36,163.8 c -1.23,-0.17 -1.49,1 -2.16,4.29 -0.59,2.91 -1.08,7.71 -2.2,7.73 z"
         style="fill:#263238"
         id="path16" />
      <path
         d="m 78.91,163.23 -4,-2.16 a 2.21,2.21 0 0 1 3,-1 2.4,2.4 0 0 1 1,3.16 z"
         style="fill:#263238"
         id="path17" />
      <path
         d="m 93.26,188.62 c 0,0 -6,-1.19 -8,-2.3 a 6.87,6.87 0 0 1 -2.88,-2.85 9.33,9.33 0 0 0 1.62,3.36 c 1.52,1.95 9.27,3.38 9.27,3.38 z"
         style="fill:#f28f8f"
         id="path18" />
      <path
         d="m 91.83,173.22 a 1.19,1.19 0 1 1 -1.19,-1.22 1.2,1.2 0 0 1 1.19,1.22 z"
         style="fill:#263238"
         id="path19" />
      <path
         d="m 90.57,168.72 -2.57,1.4 a 1.53,1.53 0 0 1 0.59,-2 1.42,1.42 0 0 1 1.98,0.6 z"
         style="fill:#263238"
         id="path20" />
      <path
         d="m 92.72,181.46 2.73,1 a 1.43,1.43 0 0 1 -1.85,0.9 1.52,1.52 0 0 1 -0.88,-1.9 z"
         style="fill:#f28f8f"
         id="path21" />
      <path
         d="m 102.47,169.71 -2.33,-1.79 a 1.41,1.41 0 0 1 2,-0.31 1.54,1.54 0 0 1 0.33,2.1 z"
         style="fill:#263238"
         id="path22" />
      <path
         d="m 101.75,172.88 a 1.19,1.19 0 1 1 -1.19,-1.24 1.2,1.2 0 0 1 1.19,1.24 z"
         style="fill:#263238"
         id="path23" />
      <polygon
         points="96.07,178.92 99.81,177.65 95.68,171.75 "
         style="fill:#f28f8f"
         id="polygon23" />
      <path
         d="m 77.11,359.44 v -1.09 c 0.74,0.32 2.43,6.8 5.47,9.56 2.41,2.2 5.69,4.74 6.53,7.19 0.84,2.45 -4.58,4 -6.83,3.56 -2.62,-0.47 -7.15,-2.31 -8.29,-4 -1.14,-1.69 -1.67,-4.22 -2.59,-5.47 -0.92,-1.25 -3.06,-2.65 -3.56,-4.1 -0.28,-0.8 0,-2.54 0.44,-4 0.44,-1.46 0.73,-2.84 1.19,-2.71 0,0.16 0,0.83 0,0.83 a 6,6 0 0 0 3.82,1.29 c 1.12,0.02 3.83,-0.21 3.82,-1.06 z"
         style="fill:#263238"
         id="path24" />
      <path
         d="m 103.68,347.34 c 0.4,0 0.72,0.58 1.59,1.52 a 16.74,16.74 0 0 0 4.5,3.24 c 2.86,1.43 8.42,3.63 10.94,4.77 1.57,0.7 1.5,2.6 -0.13,3.69 -1.63,1.09 -5.55,1.85 -10.26,0.8 -2.57,-0.57 -5.91,-2.94 -8,-2.82 -2.09,0.12 -6.08,0.1 -7.64,-1 -1.56,-1.1 -0.94,-3.38 -0.49,-5.35 0.48,-2.16 1.17,-5.46 1.88,-5.31 v 0.68 c 0.92,1.39 5.59,2 7.61,0.93 z"
         style="fill:#263238"
         id="path25" />
      <path
         d="m 89,266 a 28.35,28.35 0 0 0 10.64,-6.1 c 0,0 -2.06,3.84 -8.16,7.42 l 2.29,19.53 z"
         style="fill:#263238"
         id="path26" />
    </g>
    <g
       id="freepik--arm--inject-344">
      <path
         d="m 131.75,237.48 c -1.68,0.43 -3.3,0.29 -5.62,1.09 a 10.31,10.31 0 0 1 -4.91,0.83 c -2.17,-0.13 -7.87,-2.83 -12.92,-5.89 A 57.85,57.85 0 0 1 93.91,220.13 c -4.57,-6.47 -9.63,-16.67 -12,-20.57 -2.37,-3.9 -4.71,-4.32 -7.4,-4.2 -3.16,0.13 -5.18,3 -2.4,9 a 122.25,122.25 0 0 0 14.52,23 61.46,61.46 0 0 0 15.34,13 c 5.34,3.27 10,4.88 16,6.87 1.62,0.54 2.69,1.34 5.65,2.74 a 13.86,13.86 0 0 0 3.79,1.4 17.17,17.17 0 0 0 5,0 11.81,11.81 0 0 0 5.76,-2.46 7.47,7.47 0 0 0 2.14,-2.72 5,5 0 0 0 0.25,-3.41 1.4,1.4 0 0 0 -0.33,-0.61 1.68,1.68 0 0 0 -1.21,-0.28 71.5,71.5 0 0 1 -7.3,0.36 c -2,-0.15 -3.38,-0.52 -3.1,-0.8 0.28,-0.28 1.46,-0.12 3.06,-0.81 1.6,-0.69 2.64,-2.22 2.21,-3 -0.43,-0.78 -0.46,-0.59 -2.14,-0.16 z"
         style="fill:#ffa8a7"
         id="path27" />
      <path
         d="m 75.49,194.24 c -2.43,0.12 -5.57,1.6 -5.51,5.75 0.06,4.15 6.43,16.2 11.34,23.08 0,0 7.67,-0.49 11.69,-6.27 0,0 -7.16,-11.39 -9.1,-15 -1.75,-3.29 -4.91,-7.74 -8.42,-7.56 z"
         style="fill:#e0e0e0"
         id="path28" />
    </g>
    <path
       id="freepik--hand--inject-344"
       d="m 139,211.48 a 12.38,12.38 0 0 0 -7,-0.78 c -2,0.33 -2,7 4.43,9.13 4.19,1.37 6.71,0.77 8.06,4.21 0,0 2.71,-0.36 2.1,-4.21 a 21.58,21.58 0 0 0 -5.11,-10.69 c -1.85,-2.18 -2,-4 -2.88,-3.39 -0.88,0.61 -0.87,2.85 -0.87,2.85 z"
       style="fill:#ffa8a7" />
  </g>
  <g
     id="g35"
     transform="translate(-174.17783,-18.70757)">
    <g
       id="freepik--paint-pot--inject-344">
      <path
         d="m 314.6,239.18 -36.7,-0.5 -0.32,30 v 0 c 0,2.71 1.73,5.44 5.29,7.55 7.13,4.22 18.75,4.34 26,0.28 3.64,-2.05 5.46,-4.77 5.45,-7.51 z"
         style="fill:#37474f"
         id="path29" />
      <path
         d="m 283.36,231.25 c -7.21,4.07 -7.28,10.78 -0.16,15 7.12,4.22 18.74,4.34 25.95,0.28 7.21,-4.06 7.29,-10.77 0.17,-15 -7.12,-4.23 -18.75,-4.34 -25.96,-0.28 z"
         style="fill:#455a64"
         id="path30" />
      <path
         d="m 313,239.06 a 4.56,4.56 0 0 1 -0.26,1.44 c -0.55,1.72 -2.05,3.31 -4.39,4.63 a 27.11,27.11 0 0 1 -24.36,-0.26 c -2.26,-1.34 -3.74,-3 -4.26,-4.63 a 4.53,4.53 0 0 1 -0.26,-1.54 c 0,-2.23 1.68,-4.39 4.66,-6 a 27.2,27.2 0 0 1 24.36,0.26 c 2.96,1.69 4.51,3.86 4.51,6.1 z"
         style="fill:#263238"
         id="path31" />
      <path
         d="m 312.76,240.5 c -0.55,1.72 -2.05,3.31 -4.39,4.63 a 27.11,27.11 0 0 1 -24.36,-0.26 c -2.26,-1.34 -3.74,-3 -4.26,-4.63 a 8.75,8.75 0 0 1 4.4,-4.61 26.95,26.95 0 0 1 24.36,0.26 8.87,8.87 0 0 1 4.25,4.61 z"
         style="fill:#0000ff"
         id="path32" />
      <path
         d="m 304.07,250.41 c 0.81,-0.45 1.45,-0.07 1.44,0.85 a 3.22,3.22 0 0 1 -1.47,2.5 c -0.81,0.45 -1.45,0.07 -1.44,-0.85 a 3.22,3.22 0 0 1 1.47,-2.5 z"
         style="fill:#263238"
         id="path33" />
      <path
         d="m 277.84,244 c -2,4 -6,13.44 -0.82,17.3 0.22,0.16 0.42,0.3 0.64,0.44 v 1.91 c -0.52,-0.31 -1.06,-0.67 -1.58,-1.05 -7.79,-5.78 1,-20.59 1.38,-21.21 a 0.74,0.74 0 0 1 0.44,-0.34 z"
         style="fill:#e0e0e0"
         id="path34" />
      <path
         d="m 304.76,252.46 c -0.22,0.46 -5.89,11.3 -15.22,13.48 a 13.62,13.62 0 0 1 -3.22,0.38 16.18,16.18 0 0 1 -8.68,-2.72 v -1.91 c 3.85,2.67 7.73,3.59 11.52,2.71 8.61,-2 14.12,-12.58 14.16,-12.68 a 0.8,0.8 0 0 1 1.08,-0.34 0.78,0.78 0 0 1 0.36,1.08 z"
         style="fill:#e0e0e0"
         id="path35" />
    </g>
  </g>
  <path
     style="fill:#000080;fill-opacity:0.729002;stroke-width:0.215319"
     d="m 186.5737,237.27029 c -9.21478,-0.8214 -17.51151,-4.74289 -22.47657,-10.62366 -0.72742,-0.86157 -2.10186,-2.77275 -2.03915,-2.83546 0.0172,-0.0172 0.46548,0.12134 0.99618,0.30788 0.8039,0.28257 1.16623,0.34653 2.17151,0.38334 1.06465,0.039 1.32394,0.0105 2.20393,-0.2419 0.56469,-0.16198 1.95605,-0.74644 3.20743,-1.34733 2.97869,-1.43031 3.03552,-1.45276 3.15187,-1.24486 0.26587,0.47508 1.48553,1.85991 2.49105,2.82841 2.0687,1.99251 6.19747,4.4948 10.14428,6.14806 3.97104,1.66341 8.04978,2.67058 12.31498,3.04097 1.38187,0.12 5.52892,0.0756 6.29807,-0.0675 0.50315,-0.0936 -0.6415,0.48162 -2.11671,1.06367 -2.93283,1.15717 -6.35687,1.98943 -9.83348,2.39017 -1.36478,0.15732 -5.54498,0.28451 -6.51339,0.19819 z"
     id="path69" />
</svg>
