<svg xmlns="http://www.w3.org/2000/svg" viewBox="0 0 500 500"><g id="freepik--light-bulb--inject-243"><g id="freepik--Bulb--inject-243"><g id="freepik--bulb--inject-243"><g id="freepik--Socket--inject-243"><path d="M295.69,228.59c-3.87-2.73-3.52-6.56.78-8.54a16.41,16.41,0,0,1,14.81,1.36c3.87,2.74,3.51,6.56-.79,8.55A16.42,16.42,0,0,1,295.69,228.59Z" style="fill:#263238"></path><path d="M313.19,227.89l-1.69-.16a5.25,5.25,0,0,0-2-2.35,13.33,13.33,0,0,0-12-1.11,5.31,5.31,0,0,0-2.38,1.95l-1.69-.15,1.66,3.26h0a5.62,5.62,0,0,0,1.76,1.89,13.39,13.39,0,0,0,12,1.11,5.72,5.72,0,0,0,2.07-1.54h0Z" style="fill:#263238"></path><path d="M292.4,225.51c-5.72-4.06-5.18-9.72,1.19-12.63s16.17-2,21.89,2.07,5.17,9.72-1.2,12.63S298.11,229.57,292.4,225.51Z" style="fill:#455a64"></path><path d="M292.18,223.42c-5.92-4.21-5.36-10.07,1.25-13.1s16.77-2.06,22.69,2.15,5.37,10.08-1.24,13.1S298.11,227.64,292.18,223.42Z" style="fill:#37474f"></path><path d="M292.11,221.12c-6.07-4.32-5.5-10.34,1.28-13.44s17.19-2.11,23.27,2.21,5.5,10.33-1.28,13.43S298.19,225.43,292.11,221.12Z" style="fill:#455a64"></path><path d="M292,218.81c-6.22-4.43-5.64-10.59,1.31-13.77s17.62-2.17,23.84,2.26,5.64,10.59-1.3,13.77S298.27,223.23,292,218.81Z" style="fill:#37474f"></path><path d="M292,216.5c-6.37-4.54-5.77-10.85,1.34-14.1s18-2.22,24.42,2.31,5.77,10.85-1.34,14.1S298.35,221,292,216.5Z" style="fill:#455a64"></path><path d="M291.9,214.19c-6.52-4.64-5.91-11.1,1.37-14.43s18.47-2.27,25,2.37,5.91,11.09-1.37,14.43S298.42,218.83,291.9,214.19Z" style="fill:#37474f"></path></g><path d="M324.44,200.77c.25-2.73-1.3-5.63-4.71-8.05-6.83-4.86-18.54-6-26.15-2.48-3.81,1.74-5.88,4.3-6.13,7-.1,1.06-.5,5.22-.6,6.28-.26,2.74,1.29,5.64,4.71,8.06,6.83,4.86,18.54,6,26.16,2.48,3.8-1.74,5.87-4.3,6.12-7C323.94,206,324.34,201.84,324.44,200.77Z" style="fill:#F3CC19"></path><path d="M317.91,72.77A55.87,55.87,0,0,0,257,123.12c-4.19,44.15,31.55,54.94,29.86,72.73-.26,2.84,1.34,5.85,4.88,8.37,7.09,5,19.24,6.19,27.14,2.57,4-1.81,6.09-4.47,6.36-7.3h0c1.69-17.8,38.82-21.68,43-65.83A55.87,55.87,0,0,0,317.91,72.77Z" style="fill:#F3CC19"></path><path d="M317.91,72.77A55.87,55.87,0,0,0,257,123.12c-4.19,44.15,31.55,54.94,29.86,72.73-.26,2.84,1.34,5.85,4.88,8.37,7.09,5,19.24,6.19,27.14,2.57,4-1.81,6.09-4.47,6.36-7.3h0c1.69-17.8,38.82-21.68,43-65.83A55.87,55.87,0,0,0,317.91,72.77Z" style="fill:#fff;mix-blend-mode:screen;opacity:0.9"></path><path d="M294.1,203.24c-5.93-4.21-5.37-10.07,1.24-13.1s16.77-2.06,22.69,2.15,5.37,10.08-1.24,13.11S300,207.46,294.1,203.24Z" style="fill:#F3CC19"></path><path d="M294.1,203.24c-5.93-4.21-5.37-10.07,1.24-13.1s16.77-2.06,22.69,2.15,5.37,10.08-1.24,13.11S300,207.46,294.1,203.24Z" style="fill:#fff;opacity:0.55"></path><path d="M319.7,203.58a12.29,12.29,0,0,1-2.91,1.82c-6.61,3-16.77,2.06-22.69-2.15a12.39,12.39,0,0,1-2.51-2.33,12.1,12.1,0,0,1,2.9-1.82c6.61-3,16.78-2.07,22.7,2.15A12.1,12.1,0,0,1,319.7,203.58Z" style="fill:#F3CC19;opacity:0.25"></path><path d="M319.7,203.58a12.29,12.29,0,0,1-2.91,1.82c-6.61,3-16.77,2.06-22.69-2.15a12.39,12.39,0,0,1-2.51-2.33,12.1,12.1,0,0,1,2.9-1.82c6.61-3,16.78-2.07,22.7,2.15A12.1,12.1,0,0,1,319.7,203.58Z" style="fill:#F3CC19"></path><path d="M319.7,203.58a12.29,12.29,0,0,1-2.91,1.82c-6.61,3-16.77,2.06-22.69-2.15a12.39,12.39,0,0,1-2.51-2.33,12.1,12.1,0,0,1,2.9-1.82c6.61-3,16.78-2.07,22.7,2.15A12.1,12.1,0,0,1,319.7,203.58Z" style="fill:#fff;opacity:0.35000000000000003"></path><path d="M358.86,106.16c-3-5.61-8-10.44-14.78-8.26a8.6,8.6,0,0,0-2.06,1,8.23,8.23,0,0,0-3.42,7.32c.28,5.46,5.14,9.3,7.74,13.77a48.13,48.13,0,0,1,5.82,15.85,29.52,29.52,0,0,0,1.3,5.94,4.37,4.37,0,0,0,5.36,2.39c2.27-.94,3.65-3.54,4.15-5.63C366,126.1,364.29,116.45,358.86,106.16ZM356,147.54a4.57,4.57,0,0,0-4.8,2.73,6.15,6.15,0,0,0,.11,5,3.58,3.58,0,0,0,4.78,1.57,5.8,5.8,0,0,0,3.1-4.56C359.36,150.27,358.25,148,356,147.54Z" style="fill:#fff;opacity:0.35000000000000003"></path><path d="M312,203.93l-.64-.06c1.87-19.79,4.2-32.09,7.78-41.11a40,40,0,0,1,3.37-6.69,34.58,34.58,0,0,1-11.73-8.5,34.46,34.46,0,0,1-13.11,6.15,38.51,38.51,0,0,1,2.05,7.2c1.83,9.53,1.8,22.05-.07,41.84l-.65-.06c1.87-19.73,1.9-32.19.09-41.66a38.18,38.18,0,0,0-2.08-7.2,16.29,16.29,0,0,1-1.89.24c-6.57.47-10.16-1.75-11.33-4a4.23,4.23,0,0,1,.57-4.77A4.3,4.3,0,0,1,289,144c2.77.69,6.07,3.46,8.48,9.11a33.56,33.56,0,0,0,12.95-6,15,15,0,0,1-1.64-2.38c-2.59-4.88-2-8.85-.65-10.93a4.48,4.48,0,0,1,7.95.76c1,2.3.78,6.3-2.69,10.61a14.72,14.72,0,0,1-2.06,2,33.62,33.62,0,0,0,11.59,8.35c3.43-5.09,7.19-7.19,10-7.35a4.31,4.31,0,0,1,4.26,2.15,4.24,4.24,0,0,1-.34,4.8c-1.57,2-5.52,3.48-11.88,1.79-.6-.16-1.2-.36-1.81-.59a37.32,37.32,0,0,0-3.39,6.68C316.22,172,313.9,184.2,312,203.93Zm11.51-48.16c.54.2,1.08.37,1.61.51,6.06,1.61,9.76.25,11.2-1.57a3.54,3.54,0,0,0,.27-4.08,3.66,3.66,0,0,0-3.64-1.82C330.43,149,326.85,151,323.54,155.77ZM288.05,144.5a3.5,3.5,0,0,0-3.16,1.23,3.55,3.55,0,0,0-.5,4.06c1.07,2.05,4.46,4.09,10.71,3.65a16.75,16.75,0,0,0,1.68-.21c-2.35-5.35-5.49-8-8-8.6A5.39,5.39,0,0,0,288.05,144.5Zm24.21-12.15a3.79,3.79,0,0,0-3.61,1.78c-1.61,2.42-1.34,6.45.69,10.27a14.09,14.09,0,0,0,1.56,2.28,13.89,13.89,0,0,0,2-2c2.71-3.37,3.73-7.27,2.6-9.95A3.77,3.77,0,0,0,312.26,132.35Z" style="fill:#455a64"></path></g><path d="M317.58,60.32a1.68,1.68,0,0,1-1.56-1.8l1.16-16.68a1.68,1.68,0,1,1,3.36.24l-1.16,16.68A1.69,1.69,0,0,1,317.58,60.32Z" style="fill:#f0f0f0"></path><path d="M352.18,72.36a1.73,1.73,0,0,1-.83-.29,1.67,1.67,0,0,1-.45-2.33l9.35-13.86A1.68,1.68,0,1,1,363,57.76l-9.35,13.86A1.7,1.7,0,0,1,352.18,72.36Z" style="fill:#f0f0f0"></path><path d="M376.12,100.08a1.68,1.68,0,0,1-.62-3.19l15-7.33a1.68,1.68,0,0,1,1.47,3l-15,7.32A1.64,1.64,0,0,1,376.12,100.08Z" style="fill:#f0f0f0"></path><path d="M399.67,137.23,383,136.06a1.68,1.68,0,1,1,.24-3.35l16.68,1.16a1.68,1.68,0,1,1-.24,3.36Z" style="fill:#f0f0f0"></path><path d="M384.81,180a1.71,1.71,0,0,1-.82-.28l-13.86-9.35a1.68,1.68,0,0,1,1.88-2.79l13.86,9.35a1.68,1.68,0,0,1-1.06,3.07Z" style="fill:#f0f0f0"></path><path d="M233.68,169a1.68,1.68,0,0,1-.62-3.19l15-7.33a1.68,1.68,0,1,1,1.47,3l-15,7.33A1.7,1.7,0,0,1,233.68,169Z" style="fill:#f0f0f0"></path><path d="M241.83,125.73l-16.68-1.17a1.68,1.68,0,1,1,.24-3.35l16.68,1.16a1.68,1.68,0,1,1-.24,3.36Z" style="fill:#f0f0f0"></path><path d="M253.87,91.13a1.68,1.68,0,0,1-.82-.28L239.19,81.5a1.68,1.68,0,1,1,1.88-2.79l13.86,9.35a1.68,1.68,0,0,1-1.06,3.07Z" style="fill:#f0f0f0"></path><path d="M281.6,67.19a1.69,1.69,0,0,1-1.4-.94l-7.33-15a1.68,1.68,0,0,1,3-1.47l7.33,15a1.68,1.68,0,0,1-.78,2.25A1.61,1.61,0,0,1,281.6,67.19Z" style="fill:#f0f0f0"></path></g></g><g id="freepik--Character--inject-243"><g id="freepik--character--inject-243"><g id="freepik--Bottom--inject-243"><path d="M106.65,369.56c.73-3.11-2.35-5.07-3.81-6.86-2.25-2.76-3-9.19-2.92-12.47,0-4.1-.47-7,2.08-10.72,3-4.39,7.22-9.52,21.28-22.08L106,300c-3.62,5.68-12.76,25.59-12.76,25.59l-.6,1.23a22.83,22.83,0,0,1-5.46,5.23l-1,.49c-1.65,1.12-5.85,2.32-5.78,6.25s1.6,4.89,3.38,8.1a11.7,11.7,0,0,1,2,7c.06,3.16-.07,6.68-.1,9.51,0,2.38,2.17,5.83,6.75,7.38C99.14,373.08,105.93,372.61,106.65,369.56Z" style="fill:#ffbda7"></path><path d="M78,338.93a44.15,44.15,0,0,0-5,8.61l4.6,6.44,3.86-6.5A23.37,23.37,0,0,1,78,338.93Z" style="fill:#263238"></path><path d="M77.62,354l6.32-.44a5.34,5.34,0,0,0-.63-3.89,7.83,7.83,0,0,0-1.83-2.17Z"></path><path d="M79.29,337.47a4.68,4.68,0,0,0-1.22,1.32,11.6,11.6,0,0,0,1.36,6.63c1.31,2,3.45,4,4,6.82s-.58,9.21.53,13.1,4.87,8.35,13.06,9.4c5.85.75,8.06-.36,10-1.58.71-2.53.64-3.19-2.56-5.32S79.29,337.47,79.29,337.47Z" style="fill:#263238"></path><path d="M90.2,327.19c-2.63,3.12-3.57,4.32-6,5.72-2.93,1.7-3.53,2.38-4.93,4.56-.59,3.38.09,4.77,3.19,9.09,2.13,2.95,2.82,4.89,2.76,8.95-.07,4.91-1.74,9.39,4.24,14.41,4.66,3.92,14.86,4.18,17.62,1.46,2.37-6.7-3.93-6.35-5.36-13.46-.79-3.93-.86-9.87.37-13.8a32.29,32.29,0,0,1,2.07-5.14c1-1.67,1.85-2.89,1.06-3.76l-1.49,1.83c-1.48.32-5.07-.45-7.44-2.36-5.7-4.58-3.71-7.84-3.71-7.84l.6-1.23C92.62,324.93,91.69,325.42,90.2,327.19Z" style="fill:#37474f"></path><path d="M153.58,170.73c1.44,9.68,6.1,21.82,8.69,44.73,2.43,21.5,3.51,32.71,2,43.39-.54,3.81-2.51,8.27-6.25,13.91-11.73,17.65-34.81,45.44-34.81,45.44s-5.24-.09-11.58-5.14a17.64,17.64,0,0,1-6.39-12.1s.61-4,10.29-20.3a86,86,0,0,0,10.92-33.87l-6.31-69C135.14,179.11,146.57,176.36,153.58,170.73Z" style="fill:#263238"></path><path d="M111.6,313.06a17.64,17.64,0,0,1-6.39-12.1s.61-4,10.29-20.3a86,86,0,0,0,10.92-33.87L121.59,194c11.76-1.82,28.16-1.67,28.16-1.67.31,7.56-1.36,16.92-12.25,22.56,0,0,2,37.16,2.26,48,.19,8.3-2.22,29.42-3.38,39-7.33,9.28-13.2,16.35-13.2,16.35S117.94,318.11,111.6,313.06Z"></path><path d="M131.52,352.82l.07-1.67,1.64-33.94-23.88,6,5.31,27.21.18,1.41s.25,6.92,10.92,7.31C131.22,359.31,131.52,352.82,131.52,352.82Z" style="fill:#ffbda7"></path><polygon points="118.62 383.76 126.91 380.69 127.17 372.81 118.74 375.99 118.62 383.76"></polygon><path d="M110.56,366.1c-.34,2.9,2,14,2,14l6,3.65.12-7.77s1.67,1.43,3.44,5.54c1.67,3.88,4,7.61,7.9,9.57s10.75,2.77,16.53,2c4.11-.53,6.64-2.29,7.33-3.33a3.75,3.75,0,0,0,.24-1.65Z" style="fill:#263238"></path><path d="M131.59,351.15c1.14-.09,1,1,2.45,7.5,1,4.87,3.33,13.26,12.18,18.79,3.65,2.28,8.7,3.72,8,10.69-2.53,3.39-11.35,4.28-16.63,3.35-10.67-1.88-12.26-6.09-14.93-12.37-2.13-5-4-5.56-6.86-7.58-1.89-1.33-4.45-3.25-5.2-5.43-.14-4.78,1.67-7.9,2.31-10.31s.26-5.06,1.79-5.41l.18,1.41s1.43,3.84,8.85,4,7.83-2.95,7.83-2.95Z" style="fill:#37474f"></path><path d="M153.58,170.73s1.91,12.5-2.16,23.89c-3.54,9.9-10.34,15.48-17.49,17.8,0,0,2.38,44.45,3,50.64s-.84,28.61-2.19,43.37S133,326.24,133,326.24s-3.15,3.32-12,3.49-11.63-3.47-11.63-3.47-5.58-17.06-5.81-30.45c-.14-7.67,1.55-11.48.09-19.09S91.42,235.25,89.6,219.2s.91-30.16,12.33-46.6C114.22,180.62,142.39,178.61,153.58,170.73Z" style="fill:#263238"></path><path d="M107,175.08c-6.19,8.54-15.11,26.16-8.78,51.38q2.7,10.77,5.33,20.79c4.07,15.68,7.28,28.07,7.71,32.79a37.63,37.63,0,0,1-.39,8,66.61,66.61,0,0,0,0,18.75c1.11,8.08,2.72,16.56,3.88,22.31-.37-.1-.72-.2-1-.31-1.16-5.74-2.71-14-3.8-21.87a67.45,67.45,0,0,1,0-19,36.53,36.53,0,0,0,.38-7.78c-.42-4.65-3.63-17-7.68-32.64-1.74-6.7-3.54-13.63-5.34-20.8-6.37-25.41,2.52-43.23,8.8-52C106.35,174.84,106.65,175,107,175.08Z"></path></g><g id="freepik--Top--inject-243"><path d="M193.08,161.79c3.64,2.26,6.55,2,9.44,2.68,3.67.85,6.56,2.66,11.53,4.95.86.39,1.7.8,2.55,1.2a10,10,0,0,0,1.25.56c.4.13.74.26.73.8a1.59,1.59,0,0,1-.51,1,4.6,4.6,0,0,1-3.52,1.16,22.89,22.89,0,0,1-3.74-.73c-.95-.21-.5.8-.22,1.25,1.39,2.2,8.39,3.91,10.67,5.06,1,.52,2.41.51,2.61,1.88a7.67,7.67,0,0,0,.2,1.37,6,6,0,0,0,.78,1.24,3.09,3.09,0,0,1,.63,2,1.86,1.86,0,0,1-1.25,1.63c-.56.15-1.18,0-1.7.22a6.11,6.11,0,0,0-.67.46c-1,.67-2.32.32-3.53.28-1,0-2,.29-3,.3A20.74,20.74,0,0,1,212,189a39.54,39.54,0,0,1-7.36-2,26.21,26.21,0,0,1-8.31-5.84,16.92,16.92,0,0,0-6.89-4.86c-4.49-2-21.81-8.65-27.92-13.05-2.22-1.6-3.33-3.32-10.4-10.59-10.5-10.79-13.79-15.27-13.79-15.27l-7.58-25.18c8.73.27,12.52-.46,19.08,6.62,9.19,9.91,23,27,23,27S190,159.88,193.08,161.79Z" style="fill:#ffbda7"></path><path d="M207.87,174c-3.36,2.41-8.69,1.08-10.9-.22,0,0,2.92,2.73,5.74,2.73C205.81,176.5,207,175.42,207.87,174Z" style="fill:#f0997a"></path><path d="M237.54,310.66l32,33a1.39,1.39,0,0,0,2.39-1.13l-5.32-46Z" style="fill:#ffa8a7"></path><path d="M271.93,342.57a1.39,1.39,0,0,1-2.39,1.13l-6.25-6.45h0a7.75,7.75,0,0,0,7.11-3.83l.39-.68Z" style="fill:#455a64"></path><path d="M175.79,104.53l1.82,3.85,2.21,4.64,86.8,183.59c-1.43,5-5.17,8.92-9.59,11.57-6.72,4.05-15,5.14-19.47,2.47l-86.74-183.5-4.2-8.88C149.66,123.87,178.76,110.19,175.79,104.53Z" style="fill:#455a64"></path><path d="M182.77,119.16l4,8.6c1.25,2.46-3.31,6.56-9.17,10-7.79,4.59-18.42,6.89-20.09,3.64l-3-6.33-1-2.29c1.68,3.25,12.31,1,20.09-3.63,5.62-3.31,10-7.26,9.25-9.72v0A.63.63,0,0,0,182.77,119.16Z" style="fill:#ebebeb"></path><path d="M183.76,121.32c2.93,5.69-26.31,19.33-29.24,13.63l-4.08-8.59c2.93,5.69,32.16-8,29.23-13.64Z" style="fill:#F3CC19"></path><path d="M175.79,104.53l4,8.49c2.92,5.57-25.18,19-29,14.13a1.21,1.21,0,0,1-.21-.3l-4-8.58C149.66,123.87,178.76,110.19,175.79,104.53Z" style="fill:#ebebeb"></path><path d="M150.82,127.15l-4.2-8.88c1.37,2.53,8.24,1.67,15-1.19l91.31,193.21,16.65,33.41-32-33h0Z" style="opacity:0.1"></path><path d="M129.23,81.52c0-.09-.12-.18-.17-.28-1.75-3.74,3.36-9.84,11.42-13.62s16-3.82,17.77-.1h0l17.53,37c1.27,2.42-3.22,6.51-9,10-7.77,4.62-18.42,7-20.15,3.78,0,0,0,0,0,0L129.47,82.09c-.08-.16-.15-.32-.22-.49S129.24,81.55,129.23,81.52Z" style="fill:#f28f8f"></path><path d="M138.77,68.48l22.82,48.6c-6.68,2.78-13.6,3.73-15,1.19,0,0,0,0,0,0L129.47,82.09c-.08-.16-.15-.32-.22-.49s0,0,0-.08-.12-.18-.17-.28C127.43,77.78,131.72,72.28,138.77,68.48Z" style="opacity:0.1"></path><path d="M129.06,81.24c1.76,3.74,9.71,3.7,17.78-.08S160,71.27,158.26,67.53s-9.72-3.7-17.78.09S127.31,77.5,129.06,81.24Z" style="fill:#ffa8a7"></path><path d="M90.21,151.27s4.71-2.28,6-12.51c.58-4.65-1-10.71-3-17.7l13.37-5.82s4.42-1.22,14.17-3l9,0s16.3,6.88,22.93,15.57c3.61,4.74,7.36,14.85,1,22.53.49,6.88.58,20.9.58,20.9s-3.74,6.78-21.71,8.83c-25.78,3-33-6.45-33-6.45C99.12,166.27,92.93,158.36,90.21,151.27Z" style="fill:#F3CC19"></path><path d="M90.21,151.27s4.71-2.28,6-12.51c.58-4.65-1-10.71-3-17.7l13.37-5.82s4.42-1.22,14.17-3l9,0s16.3,6.88,22.93,15.57c3.61,4.74,7.36,14.85,1,22.53.49,6.88.58,20.9.58,20.9s-3.74,6.78-21.71,8.83c-25.78,3-33-6.45-33-6.45C99.12,166.27,92.93,158.36,90.21,151.27Z" style="fill:#fff;opacity:0.2"></path><path d="M134.58,152.77s-3.73,6.3-13.7,6.06-12.95-7.32-12.95-7.32.77,9.55,12.69,9.79C132.36,161.53,134.58,152.77,134.58,152.77Z" style="fill:#F3CC19"></path><g id="freepik--Head--inject-243"><path d="M98.13,63.84a10.5,10.5,0,0,1,5.53-3.48c2.08-.51,3.35-.48,5.33-1.29s3.5-2.08,5.38-2.87c4.13-1.74,9.1-.66,12.65,2.07,1.57,1.21,3,2.78,5,3.07a19.15,19.15,0,0,0,2.93,0,9.39,9.39,0,0,1,7.59,4.63,16.1,16.1,0,0,1,2.16,6.86c.24,2.39-.59,4.62-.44,7a8.56,8.56,0,0,0,2.26,4.6,15.27,15.27,0,0,1,3.32,5.38,11,11,0,0,1,.53,5.37,5.43,5.43,0,0,1-3.22,4.1,5.51,5.51,0,0,0-.7-5.15,6.24,6.24,0,0,1-.93,4.72,13.05,13.05,0,0,1-3.48,3.47,18.25,18.25,0,0,1-10.43,3.8c-4,0-8-1.35-11.88-.32a32.41,32.41,0,0,0-3.17,1.15,28.3,28.3,0,0,1-5.57,1.5c-1.82.3-3.67.16-5.47.42a11.85,11.85,0,0,1-8.48-2,13.32,13.32,0,0,1-5.12-10.39,6.08,6.08,0,0,0-1.21,3A8.64,8.64,0,0,1,89,91.76c.55-2.07,1.87-3.92,2-6.05.13-1.85-.63-3.63-.83-5.47a9.42,9.42,0,0,1,6.71-9.79A8.68,8.68,0,0,1,98.13,63.84Z" style="fill:#263238"></path><path d="M98.18,87c2.52-1.06,4.71-.18,6.17,2.45,1.26,2.29,3.74,1.38,3-2.22,5.55-5.66-1.24-8.92,3.32-14.36,2.84-3.39,9.17-2.72,11.76-.74a6.17,6.17,0,0,1,7-3.1c2.68.84,4.41,2.36,5.81,6,1.45,3.78.1,4.55.84,7.23A20.17,20.17,0,0,1,137.69,88c.64,12.65-1.88,15.93-4.61,18.11-1.87,1.49-4.29,2.33-8.46,2.51l.39,5.51a28.41,28.41,0,0,1,6.3,14.75c-12-3.08-18.3-7.15-25.35-12.46l-1.2-18.34h0c-.54,1.46-3.43,3.14-6.47.82C94.45,96,93.73,88.88,98.18,87Z" style="fill:#ffbda7"></path><path d="M134,80.77l-4.11-1.52a2.09,2.09,0,0,1,2.74-1.34A2.32,2.32,0,0,1,134,80.77Z" style="fill:#263238"></path><path d="M117.93,79.74,114.16,82a2.1,2.1,0,0,1,.69-3A2.31,2.31,0,0,1,117.93,79.74Z" style="fill:#263238"></path><path d="M120.16,94.81l6.13,1.9a3.22,3.22,0,0,1-4.31,2A3,3,0,0,1,120.16,94.81Z" style="fill:#b16668"></path><path d="M123.75,98.88a3.36,3.36,0,0,0-3.42-2.95,1.55,1.55,0,0,0-.31,0,2.82,2.82,0,0,0,2,2.75A3.63,3.63,0,0,0,123.75,98.88Z" style="fill:#f28f8f"></path><polygon points="123.9 81.83 125.24 93.14 131.43 90.81 123.9 81.83" style="fill:#f0997a"></polygon><circle cx="117.44" cy="85.23" r="1.83" style="fill:#263238"></circle><circle cx="131.7" cy="84.43" r="1.83" style="fill:#263238"></circle><path d="M124.62,108.61c-4.07-.11-11-.11-14.46-4.56,0,0,.53,2.7,4.73,4.68,3,1.39,9.85,1.79,9.85,1.79Z" style="fill:#f0997a"></path></g><path d="M184.39,170.64c-.36.7-1.21,1-1.5,1.66a2.69,2.69,0,0,0,0,1.1,3.53,3.53,0,0,1-1.1,2.73,3.5,3.5,0,0,0-.67.66,2.92,2.92,0,0,0-.3.92,7.33,7.33,0,0,1-2.33,3.6c-.47.4-1,.8-1.48,1.16a15.53,15.53,0,0,1-4.24,2.19,44.28,44.28,0,0,1-11.13,1.48c-4,0-7.67-1-13.94-.64-9.16.49-28.23.86-34.48.74s-8.94-.64-12.77-8.44c-3.07-6.23-4.05-8.13-10.23-22.22-8.12-18.58-8.1-29.43,3-34.52,6,1.77,10.1,9,13.14,16.73,3.55,8.92,11.75,28.4,11.75,28.4s28.25,2.92,33.16,2.69c4.61-.23,8.82-2.21,13.11-3.7,1.28-.45,2.5-1,3.76-1.45l1.88,4a6.48,6.48,0,0,1-1.18,1.28c-.56.48-1.88,1.49-1,2.23s2.37.35,3.78-.08c.91-.28,1.74-.62,2.27-.79a46.17,46.17,0,0,1,6.66-2,4.38,4.38,0,0,1,3.35.45A1.28,1.28,0,0,1,184.39,170.64Z" style="fill:#ffbda7"></path><path d="M170,167.73a7.3,7.3,0,0,1-1.39,1.78c-.51.49-1,1.2-.56,1.38,1,.66,2.69,0,3.84-.35,2.83-.91,5.68-2,8.67-2.14-2.84.91-5.53,2.15-8.37,3.09a7.84,7.84,0,0,1-3.47.54c-1-.08-2-1.06-1.29-2.05s1.82-1.34,2.57-2.25Z" style="fill:#f0997a"></path><path d="M118.09,166.19c8.36.44,17.09,1.25,25.42,1.83,2.12.16,4.23.33,6.34.4,4.22.18,8.27-1.3,12.22-2.67l6.05-2c-5.9,2.36-11.77,5.69-18.29,5.6a309.73,309.73,0,0,1-31.74-3.14Z" style="fill:#f0997a"></path></g></g></g><g id="freepik--Shapes--inject-243"><g id="freepik--abstract-forms--inject-243"><path d="M261.69,346.33c-8.37-4.56-18.39-5.43-27.79-3.89s-18.28,5.34-26.75,9.69c-3.28,1.69-7,3.51-10.49,2.37s-5.65-5.31-5.32-9.09,2.53-7.16,5.15-9.9c9.61-10.05,25.41-13.73,38.61-9.35,11.64,3.85,20.21,11.47,26.59,20.17" style="fill:#F3CC19"></path><path d="M261.69,346.33c-8.37-4.56-18.39-5.43-27.79-3.89s-18.28,5.34-26.75,9.69c-3.28,1.69-7,3.51-10.49,2.37s-5.65-5.31-5.32-9.09,2.53-7.16,5.15-9.9c9.61-10.05,25.41-13.73,38.61-9.35,11.64,3.85,20.21,11.47,26.59,20.17" style="fill:#fff;opacity:0.6000000000000001"></path><path d="M207.06,318.38a22.15,22.15,0,0,1,5.51-.39c.84.05,1.64.23,2.48.35a17,17,0,0,1,2.64.57,6.64,6.64,0,0,0-1.12-1.31,16.66,16.66,0,0,0-4.14-3.08,40,40,0,0,0-15.78-4.64,37.86,37.86,0,0,0-10.93.74c-4.73,1-9.58,3.24-12,7.47-1.11,2-1.58,4.48-.52,6.48a6.21,6.21,0,0,0,4.16,2.95,12.71,12.71,0,0,0,5.21-.1c4.28-.83,8.28-2.68,12.23-4.52S202.78,319.21,207.06,318.38Z" style="fill:#F3CC19"></path><path d="M207.06,318.38a22.15,22.15,0,0,1,5.51-.39c.84.05,1.64.23,2.48.35a17,17,0,0,1,2.64.57,6.64,6.64,0,0,0-1.12-1.31,16.66,16.66,0,0,0-4.14-3.08,40,40,0,0,0-15.78-4.64,37.86,37.86,0,0,0-10.93.74c-4.73,1-9.58,3.24-12,7.47-1.11,2-1.58,4.48-.52,6.48a6.21,6.21,0,0,0,4.16,2.95,12.71,12.71,0,0,0,5.21-.1c4.28-.83,8.28-2.68,12.23-4.52S202.78,319.21,207.06,318.38Z" style="fill:#fff;opacity:0.35000000000000003"></path><path d="M204.11,301.25c7.44,6.91,15.91,11.11,25.23,14.7-5.35-5.68-8.8-12.62-11.52-19.86s-3.54-15-4.88-22.63c-.75-4.31-2.15-8.65-5.07-11.9s-7.61-5.18-11.78-3.88c-3.65,1.15-6.27,4.57-7.25,8.27a22.73,22.73,0,0,0,.42,11.34C191.64,286.61,197.07,294.7,204.11,301.25Z" style="fill:#F3CC19"></path><g style="opacity:0.2"><path d="M204.11,301.25c7.44,6.91,15.91,11.11,25.23,14.7-5.35-5.68-8.8-12.62-11.52-19.86s-3.54-15-4.88-22.63c-.75-4.31-2.15-8.65-5.07-11.9s-7.61-5.18-11.78-3.88c-3.65,1.15-6.27,4.57-7.25,8.27a22.73,22.73,0,0,0,.42,11.34C191.64,286.61,197.07,294.7,204.11,301.25Z" style="fill:#fff"></path></g><path d="M195.45,255.14a14,14,0,0,0-8.38,9c-.21.73-.52,1.62-1.27,1.73s-1.4-.9-1.52-1.76C183.38,257.4,190.57,255.24,195.45,255.14Z" style="fill:#F3CC19"></path><path d="M298.23,313.09c-8.92,6.51-17.65,15.56-20.73,26.49-3.09-17.75,2.55-37.37,12.43-52.13,9.52-14.23,27.2-27.39,45.17-20.07,4.58,1.86,8.44,6,8.89,11,.4,4.36-1.87,8.61-5,11.63s-7.15,5-11.09,6.9C317.71,301.76,307.34,306.43,298.23,313.09Z" style="fill:#F3CC19"></path><path d="M298.23,313.09c-8.92,6.51-17.65,15.56-20.73,26.49-3.09-17.75,2.55-37.37,12.43-52.13,9.52-14.23,27.2-27.39,45.17-20.07,4.58,1.86,8.44,6,8.89,11,.4,4.36-1.87,8.61-5,11.63s-7.15,5-11.09,6.9C317.71,301.76,307.34,306.43,298.23,313.09Z" style="fill:#fff;opacity:0.35000000000000003"></path><path d="M264.18,247.84c.45,7.52,4.06,16.51,6.05,22.34,3,8.75,5.8,18.18,3.41,27.12,6.32-8.15,12.31-17.46,15.11-27.46,2.93-10.51,2.6-22.49-5.42-30.81-5.23-5.42-16.09-5.82-18.59,2.6A18.3,18.3,0,0,0,264.18,247.84Z" style="fill:#F3CC19"></path><path d="M264.18,247.84c.45,7.52,4.06,16.51,6.05,22.34,3,8.75,5.8,18.18,3.41,27.12,6.32-8.15,12.31-17.46,15.11-27.46,2.93-10.51,2.6-22.49-5.42-30.81-5.23-5.42-16.09-5.82-18.59,2.6A18.3,18.3,0,0,0,264.18,247.84Z" style="fill:#fff;opacity:0.6000000000000001"></path><path d="M330.2,256.81a14.22,14.22,0,0,0-8,.75,14,14,0,0,0-6.77,6c2.69-1.54,6.91-2.87,13.92-1.87,6.72.95,10.72,4.12,12.14,5.85-.12-3.35-2.79-6.9-5.66-8.62A17.11,17.11,0,0,0,330.2,256.81Z" style="fill:#F3CC19"></path></g></g></svg>