<?xml version="1.0" encoding="UTF-8" standalone="no"?>
<svg
   viewBox="0 0 146.01596 258.84298"
   version="1.1"
   id="svg26"
   sodipodi:docname="pencil.svg"
   width="146.01596"
   height="258.84299"
   inkscape:version="1.3.2 (091e20e, 2023-11-25, custom)"
   xml:space="preserve"
   xmlns:inkscape="http://www.inkscape.org/namespaces/inkscape"
   xmlns:sodipodi="http://sodipodi.sourceforge.net/DTD/sodipodi-0.dtd"
   xmlns="http://www.w3.org/2000/svg"
   xmlns:svg="http://www.w3.org/2000/svg"><defs
     id="defs26" /><sodipodi:namedview
     id="namedview26"
     pagecolor="#505050"
     bordercolor="#ffffff"
     borderopacity="1"
     inkscape:showpageshadow="0"
     inkscape:pageopacity="0"
     inkscape:pagecheckerboard="1"
     inkscape:deskcolor="#505050"
     inkscape:zoom="1.1610693"
     inkscape:cx="106.7981"
     inkscape:cy="44.355663"
     inkscape:window-width="1920"
     inkscape:window-height="1017"
     inkscape:window-x="-8"
     inkscape:window-y="-8"
     inkscape:window-maximized="1"
     inkscape:current-layer="freepik--Character--inject-150"><inkscape:page
       x="0"
       y="0"
       width="146.01596"
       height="258.84299"
       id="page26"
       margin="0 0 0 0"
       bleed="0" /></sodipodi:namedview><g
     id="freepik--Character--inject-150"
     transform="translate(-33.589724,-52.537777)"><ellipse
       style="fill:#999999;fill-opacity:0.729002;stroke-width:2"
       id="path30"
       cx="106.7981"
       cy="181.72902"
       rx="69.763275"
       ry="125.74615" /><g
       id="freepik--character--inject-150"><path
         d="m 105.29,113.06 c 4.66,5.57 12.36,13.09 16.73,18.57 a 16,16 0 0 1 3.54,10.13 c 0,2.73 -0.78,5 -3.45,3.84 -1.93,-0.84 -3.16,-1.84 -6,-4.61 -2.53,-2.5 -14.77,-14 -14.77,-14 0,0 -2.3,-14.09 -6.08,-15.24 -3.78,-1.15 -7,-7.18 -7,-7.18 6.2,-0.57 11.12,1.43 17.03,8.49 z"
         style="fill:#f28f8f"
         id="path1" /><path
         d="m 147.89,258.64 21.87,32 a 1.18,1.18 0 0 0 2.15,-0.6 L 174,251.11 Z"
         style="fill:#ffa8a7"
         id="path2" /><path
         d="m 171.91,290.05 a 1.18,1.18 0 0 1 -2.15,0.6 l -4.27,-6.25 v 0 a 6.54,6.54 0 0 0 6.45,-2.17 l 0.43,-0.51 z"
         style="fill:#263238"
         id="path3" /><path
         d="m 130.1,93.58 1,3.46 1.18,4.16 41.72,149.91 a 17.27,17.27 0 0 1 -9.61,8.24 c -6.16,2.41 -13.24,2.13 -16.52,-0.72 l -41.5,-148.8 -2.22,-8 c 1.77,5.11 27.61,-3.13 25.95,-8.25 z"
         style="fill:#f3cc19"
         id="path4" /><path
         d="m 133.81,106.73 2.14,7.72 c 0.7,2.22 -3.68,5 -9,7 -7.12,2.71 -16,4.11 -16.93,1.18 l -1.62,-5.63 -0.53,-2 c 0.92,2.94 9.8,1.54 16.92,-1.17 5.14,-2 9.38,-4.59 9.07,-6.76 v 0 a 0.45,0.45 0 0 0 -0.05,-0.34 z"
         style="fill:#ebebeb"
         id="path5" /><path
         d="m 134.33,108.66 c 1.62,5.15 -24.33,13.33 -26,8.18 l -2.17,-7.72 c 1.63,5.14 27.57,-3 26,-8.18 z"
         style="fill:#f3cc19"
         id="path6" /><path
         d="m 130.1,93.58 2.14,7.62 c 1.63,5 -23.34,13.19 -25.83,8.63 a 0.91,0.91 0 0 1 -0.12,-0.28 l -2.1,-7.69 c 1.73,5.08 27.57,-3.16 25.91,-8.28 z"
         style="fill:#ebebeb"
         id="path7" /><path
         d="m 106.41,109.83 -2.22,-8 c 0.78,2.29 6.49,1.87 12.36,0.24 v 0 l 43,158.59 10.26,30 -21.87,-32 v 0 z"
         style="opacity:0.1"
         id="path8" /><path
         d="m 121,61.22 9.06,32.36 c 0.71,2.19 -3.6,5 -8.91,7 -7.12,2.73 -16,4.2 -17,1.29 v 0 L 95.46,70.7 c -2.63,-7.09 10.23,-14.06 18.81,-13.53 3.21,0.18 5.79,1.4 6.73,4.05 z"
         style="fill:#f28f8f"
         id="path9" /><path
         d="m 83.08,99.45 v 0 A 18.29,18.29 0 0 1 64.79,81.16 v -1 a 15.5,15.5 0 0 1 15.5,-15.5 h 5.58 a 15.5,15.5 0 0 1 15.5,15.5 v 1 A 18.29,18.29 0 0 1 83.08,99.45 Z"
         style="fill:#263238"
         id="path10" /><path
         d="m 57.36,101.31 v 0 A 8.31,8.31 0 0 0 65.67,93 v -16.51 0 a 8.31,8.31 0 0 0 -8.31,8.3 z"
         style="fill:#263238"
         id="path11" /><path
         d="m 101.9,280.38 a 49.25,49.25 0 0 0 7,6.07 3,3 0 0 1 1,1 c 0.33,0.68 0.84,2.38 -2.28,3.47 a 11.62,11.62 0 0 1 -9.63,-0.93 c -2.56,-1.6 -2.68,-4.94 -5.1,-6.84 -1.79,-1.41 -4,-1.77 -5.47,-3.62 -1,-1.28 -0.75,-3 -0.22,-5.1 0.57,-2.31 0.84,-4.05 1.6,-3.87 l -0.13,1.06 c 1,1.52 5.89,2 8.09,0.92 a 92.13,92.13 0 0 0 5.14,7.84 z"
         style="fill:#263238"
         id="path12" /><path
         d="m 104.07,282.53 v 0 c -0.75,-0.68 -1.47,-1.38 -2.17,-2.15 a 60,60 0 0 1 -4,-5.94 9.15,9.15 0 0 1 -1.72,-4.34 c -0.05,-2 0.14,-5.67 0.14,-5.67 l -7.32,-0.49 -0.36,7.67 v 0 c -0.19,1.74 1.25,3.29 3.8,5.48 2.55,2.19 5.78,7.31 8.08,8.6 2.3,1.29 4,1.24 4.94,0.58 0.94,-0.66 1.09,-1.2 -1.39,-3.74 z"
         style="fill:#ffa8a7"
         id="path13" /><path
         d="m 77.55,287.69 a 48.7,48.7 0 0 0 7,6.07 3.09,3.09 0 0 1 1,1 c 0.33,0.68 0.84,2.38 -2.28,3.47 a 11.62,11.62 0 0 1 -9.63,-0.93 c -2.57,-1.6 -2.68,-4.94 -5.1,-6.84 -1.79,-1.41 -4,-1.77 -5.47,-3.62 -1,-1.28 -0.75,-3 -0.22,-5.1 0.57,-2.31 0.83,-4.05 1.6,-3.87 l -0.13,1.06 c 1,1.52 5.89,2 8.09,0.92 a 89.72,89.72 0 0 0 5.14,7.84 z"
         style="fill:#263238"
         id="path14" /><path
         d="m 79.71,289.84 v 0 c -0.74,-0.68 -1.47,-1.38 -2.16,-2.15 a 58.84,58.84 0 0 1 -4,-5.94 10.24,10.24 0 0 1 -1.71,-4.41 c -0.14,-1.79 0,-5.52 0,-5.52 h -7.32 l -0.18,7.08 v 0 c -0.19,1.74 1.25,3.29 3.8,5.48 2.55,2.19 5.77,7.31 8.08,8.6 2.31,1.29 3.95,1.24 4.93,0.58 0.98,-0.66 1.05,-1.18 -1.44,-3.72 z"
         style="fill:#ffa8a7"
         id="path15" /><path
         d="m 64.36,153.34 c -6.37,13.92 0.88,66.71 0.88,66.71 -0.19,2.26 -2.18,5.77 -2.42,12.67 -0.3,8.86 1.28,41.57 1.28,41.57 a 9.22,9.22 0 0 0 8.34,0.17 c 0,0 7.55,-44.41 9,-56.09 1.28,-10.19 3.75,-34.16 3.75,-34.16 l 5.08,34.11 c 0,0 -2.61,5.69 -2.74,10.83 -0.19,6.9 0.83,38.93 0.83,38.93 0,0 3.09,1.08 8.48,0.29 0,0 7.68,-43.34 8.4,-51.61 0.43,-4.94 -3.26,-65.51 -3.26,-65.51 z"
         style="fill:#37474f"
         id="path16" /><path
         d="m 85.21,184.21 2.07,-11.38 c 0,0 8.72,-1.83 12.72,-5.55 0,0 -4.17,5.19 -10.35,6.88 l -2.33,10 2.3,29.75 z"
         style="fill:#263238"
         id="path17" /><path
         d="m 76.81,104.92 v 0 c -5.6,0.77 -8.6,2 -10.4,7.26 -1.18,3.44 -0.86,8.5 0.33,11.94 l 4.88,14.28 a 77.26,77.26 0 0 0 -7.26,14.94 c 14.3,8 33.34,3.73 37.64,-2.09 0.18,-1.23 -1,-7.2 -0.63,-13.53 0.37,-6.76 1.45,-14.51 0.39,-18.68 -2,-7.75 -7.38,-12.81 -13.47,-14.44 z"
         style="fill:#f5f5f5"
         id="path18" /><path
         d="m 95.36,72.05 c 1.93,1.14 4.32,6 4.08,16.18 -0.2,8.64 -3,10.77 -4.4,11.38 -1.4,0.61 -4.12,0.24 -6.75,-0.19 v 5.18 c 0,0 3.64,4.23 3.41,6.6 -0.23,2.37 -5.26,2.94 -8.66,0.62 A 21.94,21.94 0 0 1 77.45,106 V 93.44 c 0,0 -1.78,2.38 -4.69,0.44 -2.91,-1.94 -3,-6.71 -1.33,-8.43 1.67,-1.72 5.34,-1.17 6,1.2 0,0 4.2,0.16 9.79,-2.92 a 15.71,15.71 0 0 0 8.14,-11.68 z"
         style="fill:#ffa8a7"
         id="path19" /><path
         d="m 89.8,86.06 a 1.09,1.09 0 0 1 -1,1.18 1.13,1.13 0 1 1 1,-1.18 z"
         style="fill:#263238"
         id="path20" /><path
         d="m 90.09,93.38 2.53,0.81 a 1.3,1.3 0 0 1 -1.64,0.9 1.39,1.39 0 0 1 -0.89,-1.71 z"
         style="fill:#f28f8f"
         id="path21" /><path
         d="m 98.71,82.73 -2.2,-1.52 a 1.28,1.28 0 0 1 1.82,-0.38 1.41,1.41 0 0 1 0.38,1.9 z"
         style="fill:#263238"
         id="path22" /><path
         d="M 98.2,85.28 A 1.09,1.09 0 1 1 97.06,84.2 1.11,1.11 0 0 1 98.2,85.28 Z"
         style="fill:#263238"
         id="path23" /><polygon
         points="96.69,90.13 93.08,84.66 93.25,91.19 "
         style="fill:#f28f8f"
         id="polygon23" /><path
         d="m 88.29,99.42 c -2.78,-0.37 -8.49,-2 -9.38,-4.27 a 5.87,5.87 0 0 0 2,2.88 c 1.71,1.47 7.38,3.11 7.38,3.11 z"
         style="fill:#f28f8f"
         id="path24" /><path
         d="m 132.23,147 c -1.7,0.64 -3.4,0.68 -5.72,1.78 a 10.83,10.83 0 0 1 -5,1.42 c -2.27,0.11 -8.64,-2.6 -14.23,-5.21 A 59.08,59.08 0 0 1 91,133.31 119.16,119.16 0 0 1 78.41,115.22 c -2,-3.41 -4,-8.37 -7.19,-9 -5.5,0.58 -7.74,10.16 -4.17,16.08 3.57,5.92 9.87,13.7 16.64,20.24 3.28,3.18 9.29,6.62 17.89,10.31 a 118,118 0 0 0 17.37,6 c 1.73,0.45 2.94,1.09 6.18,2.2 a 14.32,14.32 0 0 0 4.1,1 18.19,18.19 0 0 0 5.2,-0.55 12.38,12.38 0 0 0 5.7,-3.22 7.76,7.76 0 0 0 1.87,-3.08 5.22,5.22 0 0 0 -0.12,-3.57 1.49,1.49 0 0 0 -0.42,-0.6 1.78,1.78 0 0 0 -1.29,-0.15 75.11,75.11 0 0 1 -7.53,1.21 c -2.1,0.08 -3.58,-0.15 -3.32,-0.48 0.26,-0.33 1.5,-0.29 3.08,-1.19 1.58,-0.9 2.5,-2.6 1.95,-3.42 -0.55,-0.82 -0.42,-0.64 -2.12,0 z"
         style="fill:#ffa8a7"
         id="path25" /><path
         d="m 136.86,123.9 c 0,0 -2.28,-1.81 -6.6,-1.1 -2.09,0.35 -1.29,8.26 5.44,10.47 4.38,1.44 5.27,0.7 6.68,4.3 0,0 2.65,-0.55 2,-4.58 a 22.51,22.51 0 0 0 -5.33,-11.16 c -1.93,-2.28 -2.06,-4.2 -3,-3.55 -0.94,0.65 -0.42,2.62 -0.42,2.62 z"
         style="fill:#ffa8a7"
         id="path26" /></g></g><path
     style="fill:#0000ff;fill-opacity:1;stroke-width:0.304507"
     d="m 136.49746,238.28618 c -0.21618,-0.17781 -0.65227,-1.24273 -1.31102,-3.20146 -0.54289,-1.61427 -0.98708,-2.95652 -0.98708,-2.98278 0,-0.0263 0.3597,-0.12843 0.79933,-0.22704 1.00054,-0.22442 2.23004,-0.91924 3.01418,-1.70339 l 0.60184,-0.60183 0.002,0.57095 c 0.004,0.96029 -0.32241,7.09528 -0.39685,7.46428 -0.16937,0.83957 -1.08832,1.203 -1.72263,0.68127 z"
     id="path27" /><path
     style="fill:#000080;fill-opacity:1;stroke-width:0.304507"
     d="m 133.99211,234.75775 c -0.97463,-1.42194 -1.77204,-2.61501 -1.77204,-2.65125 0,-0.0362 0.42821,-0.0566 0.95158,-0.0453 l 0.95158,0.0206 0.86186,2.58831 c 0.47402,1.42356 0.84322,2.60734 0.82045,2.63061 -0.0228,0.0233 -0.83881,-1.12109 -1.81343,-2.54303 z"
     id="path28" /><path
     style="fill:#000080;fill-opacity:1;stroke-width:0.304507"
     d="m 133.90663,234.4842 -1.5528,-2.25009 0.79225,-0.0468 c 0.43574,-0.0257 0.84222,0.009 0.9033,0.0761 0.14512,0.16061 1.53205,4.34883 1.46298,4.4179 -0.0291,0.0291 -0.75169,-0.95961 -1.60573,-2.19716 z"
     id="path29" /></svg>
