<?xml version="1.0" encoding="UTF-8" standalone="no"?>
<svg
   viewBox="0 0 474.42141 459.80512"
   version="1.1"
   id="svg137"
   sodipodi:docname="repeat.svg"
   xml:space="preserve"
   width="474.42142"
   height="459.80511"
   inkscape:version="1.3.2 (091e20e, 2023-11-25, custom)"
   xmlns:inkscape="http://www.inkscape.org/namespaces/inkscape"
   xmlns:sodipodi="http://sodipodi.sourceforge.net/DTD/sodipodi-0.dtd"
   xmlns="http://www.w3.org/2000/svg"
   xmlns:svg="http://www.w3.org/2000/svg"><defs
     id="defs137"><clipPath
       id="freepik--clip-path--inject-65"><path
         d="m 359.53,324.48 a 22.32,22.32 0 0 1 -12.22,-3.34 l -0.17,-0.11 -0.34,-0.19 c -7.81,-5.32 -12.11,-16.2 -12.11,-30.69 0,-18 6.73,-39.11 18.48,-58 10.2,-16.48 23.27,-29.87 36.82,-37.7 7.95,-4.59 15.73,-7 22.47,-7 a 23,23 0 0 1 9.93,2.09 l 0.36,0.2 0.18,0.09 c 9.11,4.61 14.33,16.25 14.33,31.94 0,35.21 -24.8,78.16 -55.29,95.75 -7.97,4.54 -15.7,6.96 -22.44,6.96 z"
         style="fill:none"
         id="path1-2" /></clipPath></defs><sodipodi:namedview
     id="namedview137"
     pagecolor="#505050"
     bordercolor="#ffffff"
     borderopacity="1"
     inkscape:showpageshadow="0"
     inkscape:pageopacity="0"
     inkscape:pagecheckerboard="1"
     inkscape:deskcolor="#505050"
     inkscape:zoom="0.821"
     inkscape:cx="40.194884"
     inkscape:cy="200.36541"
     inkscape:window-width="1920"
     inkscape:window-height="1017"
     inkscape:window-x="-8"
     inkscape:window-y="-8"
     inkscape:window-maximized="1"
     inkscape:current-layer="svg137"><inkscape:page
       x="0"
       y="0"
       width="474.42142"
       height="459.80511"
       id="page137"
       margin="0 0 0 1.2180264"
       bleed="0" /></sodipodi:namedview><g
     id="freepik--Floor--inject-2"
     transform="translate(-18.270401,-30.45067)"
     style="opacity:0.677"><ellipse
       id="freepik--floor--inject-2"
       cx="252.17"
       cy="350.23001"
       rx="230.3"
       ry="132.96001"
       style="fill:#f5f5f5" /></g><g
     id="freepik--Shadow--inject-2"
     transform="translate(-65.773446,-82.825822)"><ellipse
       id="freepik--shadow--inject-2"
       cx="197.774"
       cy="533.29022"
       rx="47.156189"
       ry="16.691839"
       style="fill:#e6e6e6;stroke-width:0.921408;opacity:0.424"
       transform="rotate(-25.571306)" /></g><g
     id="freepik--Plant--inject-2"
     transform="matrix(1.1113397,0,0,1.1113397,-204.63873,-49.13843)"><g
       id="freepik--Plants--inject-2"><path
         d="m 253,340 0.36,-6.65 c 0,0 -0.62,-12.31 -9.61,-19.65 -7.91,-6.46 -13.33,-3.37 -13.08,0 0.28,3.64 5.14,6.81 10.86,11.09 C 251.62,332.36 253,340 253,340 Z"
         style="fill:#f3cc19"
         id="path1" /><path
         d="m 253,340 0.36,-6.65 c 0,0 -0.62,-12.31 -9.61,-19.65 -7.91,-6.46 -13.33,-3.37 -13.08,0 0.28,3.64 5.14,6.81 10.86,11.09 C 251.62,332.36 253,340 253,340 Z"
         style="opacity:0.1"
         id="path2" /><path
         d="m 254.16,337.13 a 0.26,0.26 0 0 1 -0.26,-0.19 c -3.62,-12.52 -13.8,-21.42 -19.37,-24.1 a 0.26,0.26 0 0 1 -0.12,-0.35 0.27,0.27 0 0 1 0.35,-0.13 c 5.65,2.72 16,11.75 19.65,24.43 a 0.27,0.27 0 0 1 -0.18,0.33 z"
         style="fill:#ffffff"
         id="path3" /><path
         d="m 253.53,357.88 c -0.31,0.2 -6.17,2.34 -8.6,-0.42 -2.43,-2.76 0.91,-7.6 -1.3,-9.12 -2.21,-1.52 -7.9,0.59 -9.56,-2.84 -1.66,-3.43 2.38,-5.26 -0.22,-8.65 -1.64,-2.14 -5.34,-3.13 -5.81,-5.18 -0.79,-3.43 4.84,-5.45 10,-2.54 5.16,2.91 8,1.19 9.56,0.86 1.56,-0.33 4.94,-0.11 5.24,5.38 0.3,5.49 0.69,22.51 0.69,22.51 z"
         style="fill:#f3cc19"
         id="path4" /><path
         d="M 253.34,350.06 A 0.32,0.32 0 0 1 253,349.82 C 250.52,339.56 237.82,332 231.41,330.65 a 0.34,0.34 0 0 1 -0.26,-0.39 0.33,0.33 0 0 1 0.39,-0.25 c 6.56,1.38 19.55,9.12 22.1,19.65 a 0.34,0.34 0 0 1 -0.24,0.4 z"
         style="fill:#ffffff"
         id="path5" /><path
         d="m 238.46,342.43 a 0.32,0.32 0 0 1 -0.29,-0.14 0.33,0.33 0 0 1 0.08,-0.46 c 0.19,-0.13 4.63,-3.19 9.3,-2.26 a 0.33,0.33 0 0 1 0.26,0.39 0.33,0.33 0 0 1 -0.38,0.25 c -4.4,-0.87 -8.76,2.13 -8.8,2.16 a 0.58,0.58 0 0 1 -0.17,0.06 z"
         style="fill:#ffffff"
         id="path6" /></g></g><g
     id="freepik--Computer--inject-2"
     transform="matrix(1.1113397,0,0,1.1113397,20.296024,-58.710121)"><g
       id="freepik--device-2--inject-2"><g
         id="freepik--Device--inject-2"><path
           d="m 186,255.86 -41.13,23.75 a 7.7,7.7 0 0 0 -3.31,4.74 l -10.22,59 a 4.91,4.91 0 0 0 2.22,4.74 l 26.52,15.31 a 6.1,6.1 0 0 0 5.52,0 l 56.68,-32.73 a 5.19,5.19 0 0 0 0,-9.17 l -20.39,-11.78 a 7,7 0 0 1 -3.09,-4.76 l -4.53,-44.53 a 6.78,6.78 0 0 0 -2.92,-4.67 5.91,5.91 0 0 0 -5.35,0.1 z"
           style="fill:#263238"
           id="path7" /><path
           d="m 162.81,353 v 11 a 5.63,5.63 0 0 0 2.76,-0.66 l 56.68,-32.73 a 5.9,5.9 0 0 0 2.75,-4.51 5.53,5.53 0 0 0 -1.08,-3 h -9.28 z"
           style="fill:#455a64"
           id="path8" /><path
           d="M 191.15,258.86 150,282.6 a 7.73,7.73 0 0 0 -3.3,4.74 l -9.28,53.57 a 4.9,4.9 0 0 0 2.22,4.74 l 20.39,11.77 a 6.1,6.1 0 0 0 5.52,0 l 56.68,-32.72 c 1.53,-0.88 1.53,-2.31 0,-3.19 l -20.39,-11.78 a 7,7 0 0 1 -3.09,-4.76 l -4.53,-44.53 a 1.91,1.91 0 0 0 -3.07,-1.58 z"
           style="fill:#263238"
           id="path9" /><path
           d="m 222.25,321.51 -20.39,-11.78 a 6.28,6.28 0 0 1 -2,-2 l -62,35.8 a 4.7,4.7 0 0 0 1.83,2.14 l 20.39,11.77 a 6.1,6.1 0 0 0 5.52,0 l 56.68,-32.72 c 1.5,-0.9 1.5,-2.33 -0.03,-3.21 z"
           style="fill:#37474f"
           id="path10" /><path
           d="m 55.27,373.23 -2.63,-1.52 a 8.57,8.57 0 0 1 -3.87,-6.7 V 188.39 a 8.52,8.52 0 0 1 3.88,-6.69 L 268.42,57.82 a 8.58,8.58 0 0 1 7.74,0 l 2,1.16 a 8.55,8.55 0 0 1 3.86,6.7 v 176.63 a 8.58,8.58 0 0 1 -3.86,6.7 L 63,373.23 a 8.58,8.58 0 0 1 -7.73,0 z"
           style="fill:#455a64"
           id="path11" /><path
           d="m 64.32,192.9 -14.41,-8.32 a 7.91,7.91 0 0 0 -1.14,3.81 V 365 a 8.57,8.57 0 0 0 3.87,6.7 l 2.63,1.52 a 8.58,8.58 0 0 0 7.74,0 l 1.31,-0.76 z"
           style="fill:#263238"
           id="path12" /><path
           d="M 59.14,371 V 194.38 a 8.53,8.53 0 0 1 3.87,-6.7 L 278.17,63.46 c 2.13,-1.24 3.86,-0.24 3.86,2.23 v 176.62 a 8.58,8.58 0 0 1 -3.86,6.7 L 63,373.23 c -2.13,1.23 -3.86,0.23 -3.86,-2.23 z"
           style="fill:#37474f"
           id="path13" /><path
           d="m 162.48,304.51 15.77,-9.11 c 1.18,-0.68 2.14,-0.19 2.14,1.08 a 4.58,4.58 0 0 1 -2.14,3.55 l -15.77,9.11 c -1.18,0.68 -2.13,0.19 -2.13,-1.08 a 4.57,4.57 0 0 1 2.13,-3.55 z"
           style="fill:#e0e0e0"
           id="path14" /><path
           d="M 69.05,193.08 271.68,75.76 c 1.22,-0.71 2.21,-0.14 2.21,1.27 V 231 a 4.88,4.88 0 0 1 -2.21,3.83 l -202.63,117 c -1.22,0.71 -2.21,0.13 -2.21,-1.28 V 196.91 a 4.9,4.9 0 0 1 2.21,-3.83 z"
           style="fill:#ffffff"
           id="path15" /></g><g
         id="freepik--Window--inject-2"><path
           d="m 74.91,334.64 c 0,2.54 1.79,3.57 4,2.3 L 261.84,231.32 a 8.82,8.82 0 0 0 4,-6.91 V 101.26 L 74.91,211.49 Z"
           style="fill:#fafafa"
           id="path16" /><path
           d="m 264.83,103 v 121.41 a 7.86,7.86 0 0 1 -3.49,6.05 L 78.4,336.07 a 2.67,2.67 0 0 1 -1.28,0.42 c -1.09,0 -1.21,-1.3 -1.21,-1.85 V 212.06 L 264.83,103 m 1,-1.73 -190.92,110.22 v 123.15 c 0,1.8 0.9,2.85 2.21,2.85 a 3.61,3.61 0 0 0 1.78,-0.55 L 261.84,231.32 a 8.82,8.82 0 0 0 4,-6.91 V 101.26 Z"
           style="fill:#e0e0e0"
           id="path17" /><polygon
           points="74.91,211.49 74.91,228.76 265.82,118.54 265.83,101.26 "
           style="fill:#f3cc19"
           id="polygon17" /><path
           d="m 194.7,149.1 v 3.72 c 0,0.76 0.54,1.07 1.2,0.69 l 58.7,-33.89 v -6.48 L 195.9,147 a 2.65,2.65 0 0 0 -1.2,2.1 z"
           style="fill:#fafafa"
           id="path18" /><path
           d="m 260.89,109.51 c 0.66,-0.38 1.19,-0.07 1.19,0.69 v 3.72 a 2.64,2.64 0 0 1 -1.19,2.07 l -6.29,3.63 v -6.48 z"
           style="fill:#455a64"
           id="path19" /><path
           d="m 260.42,114.61 -0.7,-0.22 a 4,4 0 0 0 0.11,-0.91 1.63,1.63 0 0 0 -0.64,-1.49 1,1 0 0 0 -1,0.05 3.56,3.56 0 0 0 -1.4,2.91 1.64,1.64 0 0 0 0.64,1.5 0.88,0.88 0 0 0 0.44,0.12 1.17,1.17 0 0 0 0.58,-0.17 3,3 0 0 0 1.13,-1.51 l 0.71,0.21 h 0.07 a 0.27,0.27 0 0 0 0.25,-0.19 0.25,0.25 0 0 0 -0.19,-0.3 z m -2.25,1.39 a 0.49,0.49 0 0 1 -0.5,0 1.2,1.2 0 0 1 -0.38,-1 3.1,3.1 0 0 1 1.14,-2.46 0.6,0.6 0 0 1 0.32,-0.1 0.29,0.29 0 0 1 0.18,0 1.18,1.18 0 0 1 0.38,1 3.13,3.13 0 0 1 -1.14,2.56 z"
           style="fill:#fafafa"
           id="path20" /><path
           d="m 74.91,203.13 a 8.82,8.82 0 0 1 4,-6.91 L 261.84,90.6 c 2.2,-1.27 4,-0.24 4,2.3 v 8.36 L 74.91,211.49 Z"
           style="fill:#37474f"
           id="path21" /><path
           d="m 243.37,105.57 a 4.14,4.14 0 0 0 -1.88,3.25 c 0,1.19 0.84,1.67 1.88,1.08 a 4.16,4.16 0 0 0 1.87,-3.25 c 0,-1.19 -0.84,-1.65 -1.87,-1.08 z"
           style="fill:#f3cc19"
           id="path22" /><path
           d="m 249.92,101.8 a 4.13,4.13 0 0 0 -1.87,3.24 c 0,1.2 0.83,1.68 1.87,1.08 a 4.12,4.12 0 0 0 1.87,-3.24 c 0,-1.19 -0.79,-1.68 -1.87,-1.08 z"
           style="fill:#f3cc19"
           id="path23" /><path
           d="m 256.47,98 a 4.11,4.11 0 0 0 -1.87,3.24 c 0,1.19 0.83,1.68 1.87,1.08 a 4.15,4.15 0 0 0 1.87,-3.24 c 0,-1.16 -0.84,-1.65 -1.87,-1.08 z"
           style="fill:#f3cc19"
           id="path24" /><path
           d="m 78.9,336.94 33.45,-19.31 V 207.15 l -37.44,21.62 v 105.87 c 0,2.54 1.79,3.57 3.99,2.3 z"
           style="fill:#f5f5f5"
           id="path25" /><path
           d="m 111.35,208.88 v 108.17 l -32.95,19 a 2.67,2.67 0 0 1 -1.28,0.42 c -1.09,0 -1.21,-1.3 -1.21,-1.85 V 229.34 l 35.44,-20.46 m 1,-1.73 -37.44,21.62 v 105.87 c 0,1.8 0.9,2.85 2.21,2.85 a 3.61,3.61 0 0 0 1.78,-0.55 l 33.45,-19.31 z"
           style="fill:#e0e0e0"
           id="path26" /><path
           d="m 87.34,230.24 17.91,-10.36 c 0.66,-0.38 1.2,-0.07 1.2,0.7 v 1.55 a 2.66,2.66 0 0 1 -1.19,2.08 l -17.92,10.35 c -0.66,0.38 -1.2,0.07 -1.2,-0.69 v -1.56 a 2.65,2.65 0 0 1 1.2,-2.07 z"
           style="fill:#e0e0e0"
           id="path27" /><path
           d="M 82.4,234.47 V 236 a 2.65,2.65 0 0 1 -1.2,2.07 l -1.35,0.78 c -0.66,0.38 -1.19,0.07 -1.19,-0.69 v -1.56 a 2.64,2.64 0 0 1 1.19,-2.07 l 1.35,-0.78 c 0.66,-0.35 1.2,-0.04 1.2,0.72 z"
           style="fill:#f3cc19"
           id="path28" /><path
           d="m 87.34,238.85 17.91,-10.35 c 0.66,-0.38 1.2,-0.08 1.2,0.69 v 1.56 a 2.64,2.64 0 0 1 -1.19,2.07 l -17.92,10.35 c -0.66,0.38 -1.2,0.07 -1.2,-0.69 v -1.56 a 2.65,2.65 0 0 1 1.2,-2.07 z"
           style="fill:#e0e0e0"
           id="path29" /><path
           d="m 82.4,243.08 v 1.56 a 2.67,2.67 0 0 1 -1.2,2.08 l -1.35,0.77 c -0.66,0.39 -1.19,0.08 -1.19,-0.69 v -1.55 a 2.64,2.64 0 0 1 1.19,-2.08 l 1.35,-0.78 c 0.66,-0.39 1.2,-0.07 1.2,0.69 z"
           style="fill:#f3cc19"
           id="path30" /><path
           d="m 87.34,247.46 17.91,-10.35 c 0.66,-0.38 1.2,-0.07 1.2,0.69 v 1.56 a 2.64,2.64 0 0 1 -1.19,2.07 l -17.92,10.35 c -0.66,0.39 -1.2,0.08 -1.2,-0.69 v -1.55 a 2.65,2.65 0 0 1 1.2,-2.08 z"
           style="fill:#e0e0e0"
           id="path31" /><path
           d="m 82.4,251.7 v 1.56 a 2.65,2.65 0 0 1 -1.2,2.07 l -1.35,0.78 c -0.66,0.38 -1.19,0.07 -1.19,-0.69 v -1.56 a 2.64,2.64 0 0 1 1.19,-2.07 L 81.2,251 c 0.66,-0.38 1.2,-0.07 1.2,0.7 z"
           style="fill:#f3cc19"
           id="path32" /><path
           d="M 87.34,264.31 105.25,254 c 0.66,-0.38 1.2,-0.07 1.2,0.69 v 1.56 a 2.64,2.64 0 0 1 -1.19,2.07 l -17.92,10.32 c -0.66,0.38 -1.2,0.07 -1.2,-0.69 v -1.56 a 2.67,2.67 0 0 1 1.2,-2.08 z"
           style="fill:#e0e0e0"
           id="path33" /><path
           d="m 82.4,268.55 v 1.56 a 2.65,2.65 0 0 1 -1.2,2.07 l -1.35,0.78 c -0.66,0.38 -1.19,0.07 -1.19,-0.69 v -1.56 a 2.64,2.64 0 0 1 1.19,-2.07 l 1.35,-0.78 c 0.66,-0.38 1.2,-0.07 1.2,0.69 z"
           style="fill:#f3cc19"
           id="path34" /><path
           d="m 87.34,271.94 17.91,-10.35 c 0.66,-0.38 1.2,-0.07 1.2,0.69 v 1.56 a 2.64,2.64 0 0 1 -1.19,2.07 l -17.92,10.35 c -0.66,0.39 -1.2,0.08 -1.2,-0.69 V 274 a 2.65,2.65 0 0 1 1.2,-2.06 z"
           style="fill:#e0e0e0"
           id="path35" /><path
           d="m 82.4,276.18 v 1.56 a 2.65,2.65 0 0 1 -1.2,2.07 l -1.35,0.78 c -0.66,0.38 -1.19,0.07 -1.19,-0.69 v -1.56 a 2.66,2.66 0 0 1 1.19,-2.08 l 1.35,-0.77 c 0.66,-0.39 1.2,-0.08 1.2,0.69 z"
           style="fill:#f3cc19"
           id="path36" /><polygon
           points="88.47,256.86 86.14,256.86 86.14,259.55 "
           style="fill:#f3cc19"
           id="polygon36" /><path
           d="m 89.89,256.31 c 0,0.5 0.35,0.7 0.79,0.44 l 15,-8.61 a 1.77,1.77 0 0 0 0.8,-1.38 c 0,-0.5 -0.36,-0.71 -0.8,-0.45 l -15,8.64 a 1.72,1.72 0 0 0 -0.79,1.36 z"
           style="fill:#e0e0e0"
           id="path37" /><path
           d="m 122,210.37 35.83,-20.68 c 0.5,-0.29 0.91,-0.06 0.91,0.52 v 35.45 a 2,2 0 0 1 -0.91,1.58 L 122,247.93 c -0.51,0.29 -0.92,0 -0.92,-0.53 V 212 a 2,2 0 0 1 0.92,-1.63 z"
           style="fill:#f3cc19"
           id="path38" /><path
           d="m 122,210.37 35.83,-20.68 c 0.5,-0.29 0.91,-0.06 0.91,0.52 v 35.45 a 2,2 0 0 1 -0.91,1.58 L 122,247.93 c -0.51,0.29 -0.92,0 -0.92,-0.53 V 212 a 2,2 0 0 1 0.92,-1.63 z"
           style="opacity:0.8;fill:#ffffff"
           id="path39" /><path
           d="m 148.74,209.79 -6,10.6 4.21,5.45 -13.9,-12 -12,25.94 v 7.59 c 0,0.58 0.41,0.82 0.92,0.53 l 35.83,-20.69 a 2,2 0 0 0 0.91,-1.58 v -6.73 z"
           style="fill:#f3cc19"
           id="path40" /><path
           d="m 150.18,198.89 c 1.49,-0.86 2.7,-0.16 2.7,1.56 a 6,6 0 0 1 -2.7,4.67 c -1.49,0.86 -2.7,0.17 -2.7,-1.55 a 6,6 0 0 1 2.7,-4.68 z"
           style="fill:#f3cc19"
           id="path41" /><path
           d="m 170.74,182.19 35.83,-20.68 c 0.51,-0.29 0.91,-0.06 0.91,0.52 v 35.45 a 2,2 0 0 1 -0.91,1.58 l -35.83,20.69 c -0.5,0.29 -0.91,0.05 -0.91,-0.53 v -35.45 a 2,2 0 0 1 0.91,-1.58 z"
           style="fill:#f3cc19"
           id="path42" /><path
           d="m 170.74,182.19 35.83,-20.68 c 0.51,-0.29 0.91,-0.06 0.91,0.52 v 35.45 a 2,2 0 0 1 -0.91,1.58 l -35.83,20.69 c -0.5,0.29 -0.91,0.05 -0.91,-0.53 v -35.45 a 2,2 0 0 1 0.91,-1.58 z"
           style="opacity:0.8;fill:#ffffff"
           id="path43" /><path
           d="m 197.49,181.61 -6,10.6 4.21,5.45 -13.9,-12 -12,25.93 v 7.6 c 0,0.58 0.41,0.82 0.91,0.53 l 35.83,-20.69 a 2,2 0 0 0 0.91,-1.58 v -6.73 z"
           style="fill:#f3cc19"
           id="path44" /><path
           d="m 198.93,170.71 c 1.49,-0.86 2.69,-0.16 2.69,1.56 a 6,6 0 0 1 -2.69,4.67 c -1.5,0.86 -2.7,0.17 -2.7,-1.56 a 5.93,5.93 0 0 1 2.7,-4.67 z"
           style="fill:#f3cc19"
           id="path45" /><path
           d="m 219.49,154 35.83,-20.69 c 0.5,-0.29 0.91,-0.05 0.91,0.53 v 35.46 a 2,2 0 0 1 -0.91,1.58 l -35.83,20.69 c -0.51,0.29 -0.92,0.06 -0.92,-0.53 V 155.6 a 2,2 0 0 1 0.92,-1.6 z"
           style="fill:#f3cc19"
           id="path46" /><path
           d="m 219.49,154 35.83,-20.69 c 0.5,-0.29 0.91,-0.05 0.91,0.53 v 35.46 a 2,2 0 0 1 -0.91,1.58 l -35.83,20.69 c -0.51,0.29 -0.92,0.06 -0.92,-0.53 V 155.6 a 2,2 0 0 1 0.92,-1.6 z"
           style="opacity:0.8;fill:#ffffff"
           id="path47" /><path
           d="m 246.23,153.44 -6,10.59 4.2,5.46 -13.9,-12 -12,25.94 V 191 c 0,0.59 0.41,0.82 0.92,0.53 l 35.83,-20.69 a 2,2 0 0 0 0.91,-1.58 v -6.72 z"
           style="fill:#f3cc19"
           id="path48" /><path
           d="m 247.67,142.53 c 1.49,-0.86 2.7,-0.16 2.7,1.56 a 6,6 0 0 1 -2.7,4.68 c -1.49,0.86 -2.7,0.16 -2.7,-1.56 a 6,6 0 0 1 2.7,-4.68 z"
           style="fill:#f3cc19"
           id="path49" /><path
           d="m 122,262 35.83,-20.69 c 0.5,-0.29 0.91,-0.06 0.91,0.53 v 35.44 a 2,2 0 0 1 -0.91,1.58 L 122,299.53 c -0.51,0.29 -0.92,0.05 -0.92,-0.53 V 263.56 A 2,2 0 0 1 122,262 Z"
           style="fill:#f3cc19"
           id="path50" /><path
           d="m 122,262 35.83,-20.69 c 0.5,-0.29 0.91,-0.06 0.91,0.53 v 35.44 a 2,2 0 0 1 -0.91,1.58 L 122,299.53 c -0.51,0.29 -0.92,0.05 -0.92,-0.53 V 263.56 A 2,2 0 0 1 122,262 Z"
           style="opacity:0.8;fill:#ffffff"
           id="path51" /><path
           d="m 148.74,261.4 -6,10.59 4.21,5.45 -13.9,-12 -12,25.94 V 299 c 0,0.58 0.41,0.82 0.92,0.53 l 35.83,-20.69 a 2,2 0 0 0 0.91,-1.58 v -6.73 z"
           style="fill:#f3cc19"
           id="path52" /><path
           d="m 150.18,250.49 c 1.49,-0.86 2.7,-0.16 2.7,1.56 a 6,6 0 0 1 -2.7,4.67 c -1.49,0.87 -2.7,0.17 -2.7,-1.55 a 6,6 0 0 1 2.7,-4.68 z"
           style="fill:#f3cc19"
           id="path53" /><path
           d="m 170.74,233.79 35.83,-20.68 c 0.51,-0.29 0.91,-0.06 0.91,0.52 v 35.45 a 2,2 0 0 1 -0.91,1.58 l -35.83,20.69 c -0.5,0.29 -0.91,0 -0.91,-0.53 v -35.45 a 2,2 0 0 1 0.91,-1.58 z"
           style="fill:#f3cc19"
           id="path54" /><path
           d="m 170.74,233.79 35.83,-20.68 c 0.51,-0.29 0.91,-0.06 0.91,0.52 v 35.45 a 2,2 0 0 1 -0.91,1.58 l -35.83,20.69 c -0.5,0.29 -0.91,0 -0.91,-0.53 v -35.45 a 2,2 0 0 1 0.91,-1.58 z"
           style="opacity:0.8;fill:#ffffff"
           id="path55" /><path
           d="m 197.49,233.21 -6,10.6 4.21,5.45 -13.9,-12 -12,25.93 v 7.6 c 0,0.58 0.41,0.82 0.91,0.53 l 35.83,-20.69 a 2,2 0 0 0 0.91,-1.58 v -6.73 z"
           style="fill:#f3cc19"
           id="path56" /><path
           d="m 198.93,222.31 c 1.49,-0.86 2.69,-0.16 2.69,1.56 a 6,6 0 0 1 -2.69,4.67 c -1.5,0.86 -2.7,0.17 -2.7,-1.55 a 5.94,5.94 0 0 1 2.7,-4.68 z"
           style="fill:#f3cc19"
           id="path57" /><path
           d="m 219.49,205.62 35.83,-20.69 c 0.5,-0.29 0.91,-0.05 0.91,0.53 v 35.44 a 2,2 0 0 1 -0.91,1.58 l -35.83,20.69 c -0.51,0.29 -0.92,0.06 -0.92,-0.53 V 207.2 a 2,2 0 0 1 0.92,-1.58 z"
           style="fill:#f3cc19"
           id="path58" /><path
           d="m 219.49,205.62 35.83,-20.69 c 0.5,-0.29 0.91,-0.05 0.91,0.53 v 35.44 a 2,2 0 0 1 -0.91,1.58 l -35.83,20.69 c -0.51,0.29 -0.92,0.06 -0.92,-0.53 V 207.2 a 2,2 0 0 1 0.92,-1.58 z"
           style="opacity:0.8;fill:#ffffff"
           id="path59" /><path
           d="m 246.23,205 -6,10.59 4.2,5.46 -13.9,-12 -12,25.94 v 7.59 c 0,0.59 0.41,0.82 0.92,0.53 l 35.83,-20.69 a 2,2 0 0 0 0.91,-1.58 v -6.72 z"
           style="fill:#f3cc19"
           id="path60" /><path
           d="m 247.67,194.14 c 1.49,-0.87 2.7,-0.17 2.7,1.55 a 6,6 0 0 1 -2.7,4.68 c -1.49,0.86 -2.7,0.16 -2.7,-1.56 a 6,6 0 0 1 2.7,-4.67 z"
           style="fill:#f3cc19"
           id="path61" /></g></g></g><g
     id="g109"
     transform="matrix(0.79905399,0,0,0.79905399,103.29981,10.547946)"><g
       id="freepik--sync-icon--inject-2"
       transform="matrix(3.0499348,0,0,3.0499348,-897.474,85.69291)"><path
         d="m 410,29.12 -8.16,-4.71 v 0 l -0.09,-0.05 v 0 c -4.07,-2.29 -9.63,-1.95 -15.8,1.61 -5.77,3.33 -11,8.88 -15,15.3 -4.59,7.39 -7.48,16 -7.48,23.63 0,7.16 2.51,12.19 6.56,14.54 v 0 l 8.29,4.74 c 4.1,2.61 9.88,2.38 16.29,-1.32 12.39,-7.15 22.49,-24.58 22.49,-38.92 0,-7.46 -2.73,-12.61 -7.1,-14.82 z"
         style="fill:#f3cc19"
         id="path103" /><path
         d="M 378.17,84.11 370,79.46 v 0 c -4.05,-2.34 -6.56,-7.37 -6.56,-14.53 0,-7.68 2.89,-16.23 7.48,-23.63 l 8.67,5 c -4.59,7.39 -7.46,15.94 -7.46,23.61 0.01,6.83 2.3,11.72 6.04,14.2 z"
         style="opacity:0.1"
         id="path104" /><path
         d="m 409.83,29 c -4,-1.94 -9.34,-1.45 -15.21,1.93 -5.87,3.38 -11,8.9 -15,15.33 l -8.67,-5 c 4,-6.43 9.23,-12 15,-15.3 6.16,-3.56 11.74,-3.9 15.8,-1.61 v 0 l 0.08,0.06 v 0 z"
         style="opacity:0.4;fill:#ffffff"
         id="path105" /><path
         d="m 409.63,53.28 -2.07,-1 c 3,-9.92 0,-13.19 -5.4,-13.65 2.11,1.3 3.18,6.68 1.43,11.77 l -2.06,-1 c -0.41,-0.19 -1.08,0.53 -1.09,1.17 l -0.16,9.58 c 0,0.44 0.31,0.59 0.69,0.33 l 8.27,-5.73 c 0.56,-0.35 0.76,-1.27 0.39,-1.47 z"
         style="fill:#ffffff"
         id="path106" /><path
         d="m 403.32,45.17 c 0,-3.08 -0.94,-5.65 -2.32,-6.49 0,0 -5.64,0.49 -11.07,8.45 0,0 7.73,-6.38 13.39,-1.96 z"
         style="opacity:0.8;fill:#ffffff"
         id="path107" /><path
         d="m 380.34,60.53 2.07,1 c -3,9.92 0,13.19 5.4,13.64 -2.11,-1.29 -3.18,-6.67 -1.44,-11.76 l 2.07,1 c 0.41,0.19 1.07,-0.53 1.09,-1.17 l 0.16,-9.58 c 0,-0.44 -0.32,-0.59 -0.69,-0.33 L 380.73,59 c -0.56,0.41 -0.8,1.33 -0.39,1.53 z"
         style="fill:#ffffff"
         id="path108" /><path
         d="m 386.65,68.64 c 0,3.08 0.94,5.65 2.31,6.49 0,0 5.65,-0.49 11.08,-8.45 -0.04,0 -7.73,6.38 -13.39,1.96 z"
         style="opacity:0.8;fill:#ffffff"
         id="path109" /></g></g></svg>
