<svg xmlns="http://www.w3.org/2000/svg" viewBox="0 0 500 500"><g id="freepik--Shadow--inject-158"><path id="freepik--shadow--inject-158" d="M361.84,343.7c-16.19-9.35-40.43-11.21-59.83-5.59-42.77-12.44-96.26-8.37-132,12.25-30.52,17.63-40.13,42.76-28.82,65.11a68.25,68.25,0,0,0-24.81,8c-20.22,11.68-20.22,30.61,0,42.28s53,11.67,73.23,0a35.43,35.43,0,0,0,11.13-9.56c42.54,12,95.27,7.76,130.61-12.64,27.43-15.84,38-37.74,31.61-58.23C382,373.56,381.66,355.14,361.84,343.7Z" style="fill:#e0e0e0"></path></g><g id="freepik--Plants--inject-158"><g id="freepik--plants--inject-158"><path d="M100.3,445.94l8.69-5s5.16-21.47,3.1-40.79c-2.89-27.16-20.77-37.38-27.57-35S75.75,375.34,87,391.52C93.64,401.06,101.79,420.94,100.3,445.94Z" style="fill:#F3CC19"></path><g style="opacity:0.65"><path d="M100.3,445.94l8.69-5s5.16-21.47,3.1-40.79c-2.89-27.16-20.77-37.38-27.57-35S75.75,375.34,87,391.52C93.64,401.06,101.79,420.94,100.3,445.94Z" style="fill:#fff"></path></g><path d="M103.9,435.39h-.08a.6.6,0,0,1-.48-.7c4.76-25.06-4-53.21-14.83-64.92a.6.6,0,0,1,0-.85.61.61,0,0,1,.85,0c11,11.93,20,40.54,15.13,66A.6.6,0,0,1,103.9,435.39Z" style="fill:#fff"></path><path d="M78.46,458.55c-1.3.66-4.75-2.29-5.71-3A12,12,0,0,1,69,450.75a11.3,11.3,0,0,1-.66-6.82,25.91,25.91,0,0,1,1-3.56c.39-1.15.78-2.29,1.18-3.44a8.92,8.92,0,0,0,.69-3.5C71,431,69,429.24,67.15,427.7c-2.05-1.7-4.17-3.92-4-6.8A10.18,10.18,0,0,1,66,415c1.46-1.67,3.17-3.13,4.51-4.9a7.06,7.06,0,0,0,1.67-4.4,7.33,7.33,0,0,0-.83-2.84c-.92-1.93-2.18-3.71-2.77-5.76s-.38-4.54,1.27-5.9c1.34-1.12,3.27-1.19,5-1a11.33,11.33,0,0,1,4.52,1.86c4.44,2.77,6.77,8.31,11.52,10.51a51,51,0,0,0,5.8,1.73c1.92.61,3.86,1.71,4.67,3.55,1.6,3.65-1.92,7.86-.86,11.7.93,3.39,4.11,4.83,5.78,7.93a7.12,7.12,0,0,1,.63,4.41,20.85,20.85,0,0,1-2.21,7.3,66,66,0,0,1-4.39,6.74Z" style="fill:#F3CC19"></path><g style="opacity:0.30000000000000004"><path d="M78.46,458.55c-1.3.66-4.75-2.29-5.71-3A12,12,0,0,1,69,450.75a11.3,11.3,0,0,1-.66-6.82,25.91,25.91,0,0,1,1-3.56c.39-1.15.78-2.29,1.18-3.44a8.92,8.92,0,0,0,.69-3.5C71,431,69,429.24,67.15,427.7c-2.05-1.7-4.17-3.92-4-6.8A10.18,10.18,0,0,1,66,415c1.46-1.67,3.17-3.13,4.51-4.9a7.06,7.06,0,0,0,1.67-4.4,7.33,7.33,0,0,0-.83-2.84c-.92-1.93-2.18-3.71-2.77-5.76s-.38-4.54,1.27-5.9c1.34-1.12,3.27-1.19,5-1a11.33,11.33,0,0,1,4.52,1.86c4.44,2.77,6.77,8.31,11.52,10.51a51,51,0,0,0,5.8,1.73c1.92.61,3.86,1.71,4.67,3.55,1.6,3.65-1.92,7.86-.86,11.7.93,3.39,4.11,4.83,5.78,7.93a7.12,7.12,0,0,1,.63,4.41,20.85,20.85,0,0,1-2.21,7.3,66,66,0,0,1-4.39,6.74Z" style="fill:#fff"></path></g><path d="M91,452h0a.57.57,0,0,1-.53-.62c2.08-22.53-7.3-48-14.67-55.63a.57.57,0,0,1,0-.8.58.58,0,0,1,.81,0c7.52,7.79,17.09,33.68,15,56.53A.57.57,0,0,1,91,452Z" style="fill:#fff"></path><path d="M88.78,424.22a.45.45,0,0,1-.16,0,76.58,76.58,0,0,0-16.26-3.47.57.57,0,0,1-.51-.62.56.56,0,0,1,.62-.52A78.22,78.22,0,0,1,89,423.12a.57.57,0,0,1,.34.73A.57.57,0,0,1,88.78,424.22Z" style="fill:#fff"></path></g></g><g id="freepik--Gears--inject-158"><g id="freepik--Gear--inject-158"><path d="M358.16,28.65a1.26,1.26,0,0,0-1.65.39l-6.9,10.37a2,2,0,0,1-.94.71l-.52-5.23a.77.77,0,0,0-.35-.63h0l-7-4.06h0a.75.75,0,0,0-.77.06l-9.32,5.38a2.56,2.56,0,0,0-1.12,1.75l-.93,10.37a3.49,3.49,0,0,1-1,1.94,56.44,56.44,0,0,0-5.18,5.49,1.8,1.8,0,0,1-1.83.52l-6-2.09a1.44,1.44,0,0,0-1.68.62l-6.86,11.88a1.45,1.45,0,0,0,.3,1.76l4.8,4.14a1.8,1.8,0,0,1,.47,1.85,56.18,56.18,0,0,0-2.16,7.23,3.48,3.48,0,0,1-1.19,1.81l-8.52,6a2.49,2.49,0,0,0-1,1.83V101.5a.78.78,0,0,0,.31.69h0l7,4.07h0a.76.76,0,0,0,.72,0l4.82-2.17a2,2,0,0,1-.15,1.13l-5.53,11.16a1.26,1.26,0,0,0,.49,1.63l7,4,0,0,6,3.47a1.27,1.27,0,0,0,1.66-.39l6.89-10.37a2.07,2.07,0,0,1,.94-.71l.52,5.23a.77.77,0,0,0,.35.63h0l7,4.07h0a.77.77,0,0,0,.77-.06l9.32-5.39a2.52,2.52,0,0,0,1.12-1.74l.93-10.38a3.46,3.46,0,0,1,1-1.93A55.25,55.25,0,0,0,355.22,99a1.81,1.81,0,0,1,1.84-.52l6,2.09a1.44,1.44,0,0,0,1.68-.62l6.86-11.88a1.46,1.46,0,0,0-.3-1.77l-4.8-4.14a1.78,1.78,0,0,1-.47-1.84,56.18,56.18,0,0,0,2.16-7.23,3.48,3.48,0,0,1,1.19-1.81l8.52-6a2.49,2.49,0,0,0,.95-1.83V52.68a.75.75,0,0,0-.33-.7h0l-7-4.06h0a.78.78,0,0,0-.73,0L366,50.1a2.16,2.16,0,0,1,.15-1.14l5.54-11.15a1.27,1.27,0,0,0-.5-1.63l-4.57-2.64h0ZM330,96.85c-1.81-1.88-2.87-4.84-2.87-8.7,0-9.85,6.92-21.84,15.45-26.76,3.16-1.82,6.09-2.42,8.53-2,1.56,1.66,2.43,4.44,2.43,8.28,0,9.86-6.92,21.84-15.45,26.77C334.93,96.28,332.19,97.06,330,96.85Z" style="fill:#F3CC19"></path><path d="M358.16,28.65a1.26,1.26,0,0,0-1.65.39l-6.9,10.37a2,2,0,0,1-.94.71l-.52-5.23a.77.77,0,0,0-.35-.63h0l-7-4.06h0a.75.75,0,0,0-.77.06l-9.32,5.38a2.56,2.56,0,0,0-1.12,1.75l-.93,10.37a3.49,3.49,0,0,1-1,1.94,56.44,56.44,0,0,0-5.18,5.49,1.8,1.8,0,0,1-1.83.52l-6-2.09a1.44,1.44,0,0,0-1.68.62l-6.86,11.88a1.45,1.45,0,0,0,.3,1.76l4.8,4.14a1.8,1.8,0,0,1,.47,1.85,56.18,56.18,0,0,0-2.16,7.23,3.48,3.48,0,0,1-1.19,1.81l-8.52,6a2.49,2.49,0,0,0-1,1.83V101.5a.78.78,0,0,0,.31.69h0l7,4.07h0a.76.76,0,0,0,.72,0l4.82-2.17a2,2,0,0,1-.15,1.13l-5.53,11.16a1.26,1.26,0,0,0,.49,1.63l7,4,0,0,6,3.47a1.27,1.27,0,0,0,1.66-.39l6.89-10.37a2.07,2.07,0,0,1,.94-.71l.52,5.23a.77.77,0,0,0,.35.63h0l7,4.07h0a.77.77,0,0,0,.77-.06l9.32-5.39a2.52,2.52,0,0,0,1.12-1.74l.93-10.38a3.46,3.46,0,0,1,1-1.93A55.25,55.25,0,0,0,355.22,99a1.81,1.81,0,0,1,1.84-.52l6,2.09a1.44,1.44,0,0,0,1.68-.62l6.86-11.88a1.46,1.46,0,0,0-.3-1.77l-4.8-4.14a1.78,1.78,0,0,1-.47-1.84,56.18,56.18,0,0,0,2.16-7.23,3.48,3.48,0,0,1,1.19-1.81l8.52-6a2.49,2.49,0,0,0,.95-1.83V52.68a.75.75,0,0,0-.33-.7h0l-7-4.06h0a.78.78,0,0,0-.73,0L366,50.1a2.16,2.16,0,0,1,.15-1.14l5.54-11.15a1.27,1.27,0,0,0-.5-1.63l-4.57-2.64h0ZM330,96.85c-1.81-1.88-2.87-4.84-2.87-8.7,0-9.85,6.92-21.84,15.45-26.76,3.16-1.82,6.09-2.42,8.53-2,1.56,1.66,2.43,4.44,2.43,8.28,0,9.86-6.92,21.84-15.45,26.77C334.93,96.28,332.19,97.06,330,96.85Z" style="fill:#fff;opacity:0.30000000000000004"></path><path d="M351.07,59.43c1.56,1.65,2.44,4.42,2.44,8.28,0,9.85-6.92,21.84-15.45,26.77-3.13,1.8-5.87,2.58-8.1,2.36,2.8,2.93,7.4,3.24,12.59.24C351.08,92.15,358,80.16,358,70.31,358,64.09,355.25,60.2,351.07,59.43Z" style="opacity:0.1"></path><path d="M329.93,119.92l7,4.07h0a.45.45,0,0,1-.14-.1.85.85,0,0,1-.23-.54l-.91-9.06a1,1,0,0,0-.41-.73,1.1,1.1,0,0,0-.83-.15,18.27,18.27,0,0,1-4.49.46,2.1,2.1,0,0,0-.87.19l.52,5.23a.81.81,0,0,0,.35.63Zm-18.31-14.71-5.53,11.16a1.26,1.26,0,0,0,.49,1.63l7,4a1.26,1.26,0,0,1-.46-1.61l5.53-11.15a1.88,1.88,0,0,0,.15-.63l-7-4.05A1.71,1.71,0,0,1,311.62,105.21Zm18.25-68.64a2.3,2.3,0,0,0-.28.81l-.93,10.37a2.84,2.84,0,0,1-.28.92l7,4.06a2.83,2.83,0,0,0,.27-.91l.94-10.38a2.15,2.15,0,0,1,.27-.81Zm-9.19,21.15-7-4.06a1.39,1.39,0,0,0-.67.57l-6.86,11.88a1.44,1.44,0,0,0,0,1.38l7,4a1.43,1.43,0,0,1,0-1.32L320,58.29A1.41,1.41,0,0,1,320.68,57.72ZM306.4,93.42l-7-4.06a2.56,2.56,0,0,0-.5,1.37V101.5a.78.78,0,0,0,.31.69h0l7,4.07h0a.76.76,0,0,1-.34-.7V94.79A2.47,2.47,0,0,1,306.4,93.42Z" style="fill:#F3CC19"></path><path d="M329.93,119.92l7,4.07h0a.45.45,0,0,1-.14-.1.85.85,0,0,1-.23-.54l-.91-9.06a1,1,0,0,0-.41-.73,1.1,1.1,0,0,0-.83-.15,18.27,18.27,0,0,1-4.49.46,2.1,2.1,0,0,0-.87.19l.52,5.23a.81.81,0,0,0,.35.63Zm-18.31-14.71-5.53,11.16a1.26,1.26,0,0,0,.49,1.63l7,4a1.26,1.26,0,0,1-.46-1.61l5.53-11.15a1.88,1.88,0,0,0,.15-.63l-7-4.05A1.71,1.71,0,0,1,311.62,105.21Zm18.25-68.64a2.3,2.3,0,0,0-.28.81l-.93,10.37a2.84,2.84,0,0,1-.28.92l7,4.06a2.83,2.83,0,0,0,.27-.91l.94-10.38a2.15,2.15,0,0,1,.27-.81Zm-9.19,21.15-7-4.06a1.39,1.39,0,0,0-.67.57l-6.86,11.88a1.44,1.44,0,0,0,0,1.38l7,4a1.43,1.43,0,0,1,0-1.32L320,58.29A1.41,1.41,0,0,1,320.68,57.72ZM306.4,93.42l-7-4.06a2.56,2.56,0,0,0-.5,1.37V101.5a.78.78,0,0,0,.31.69h0l7,4.07h0a.76.76,0,0,1-.34-.7V94.79A2.47,2.47,0,0,1,306.4,93.42Z" style="fill:#fff;opacity:0.7000000000000001"></path><path d="M348.14,116.8l.93-10.38a3.46,3.46,0,0,1,1-1.93A55.25,55.25,0,0,0,355.22,99a1.81,1.81,0,0,1,1.84-.52l6,2.09a1.44,1.44,0,0,0,1.68-.62l6.86-11.88a1.46,1.46,0,0,0-.3-1.77l-4.8-4.14a1.78,1.78,0,0,1-.47-1.84,56.18,56.18,0,0,0,2.16-7.23,3.48,3.48,0,0,1,1.19-1.81l8.52-6a2.49,2.49,0,0,0,.95-1.83V52.68a.7.7,0,0,0-1.06-.69l-8.3,3.74a1,1,0,0,1-1.38-.64A18.64,18.64,0,0,0,366.24,51a2.32,2.32,0,0,1-.13-2l5.54-11.15a1.27,1.27,0,0,0-.5-1.63l-6-3.46a1.25,1.25,0,0,0-1.65.38l-6.9,10.37a2.26,2.26,0,0,1-1.8.9,18.18,18.18,0,0,0-4.49.46,1,1,0,0,1-1.25-.88l-.91-9.06a.7.7,0,0,0-1.13-.58L337.7,39.7a2.47,2.47,0,0,0-1.11,1.74l-.94,10.38a3.46,3.46,0,0,1-1,1.93,57.62,57.62,0,0,0-5.18,5.49,1.8,1.8,0,0,1-1.83.52l-6-2.09a1.44,1.44,0,0,0-1.68.62l-6.86,11.88a1.46,1.46,0,0,0,.3,1.77l4.81,4.14a1.77,1.77,0,0,1,.46,1.84,56.18,56.18,0,0,0-2.16,7.23A3.42,3.42,0,0,1,315.36,87l-8.52,6a2.49,2.49,0,0,0-.95,1.83v10.77a.7.7,0,0,0,1.06.69l8.3-3.74a1,1,0,0,1,1.38.64,19.11,19.11,0,0,0,1.85,4.11,2.28,2.28,0,0,1,.13,2l-5.53,11.15a1.25,1.25,0,0,0,.49,1.63l6,3.47a1.27,1.27,0,0,0,1.66-.39l6.89-10.37a2.28,2.28,0,0,1,1.81-.9,18.27,18.27,0,0,0,4.49-.46,1,1,0,0,1,1.24.88l.91,9.06a.7.7,0,0,0,1.13.58l9.32-5.39A2.52,2.52,0,0,0,348.14,116.8Zm-5.59-19.72C334,102,327.1,98,327.1,88.15S334,66.31,342.55,61.39,358,60.45,358,70.31,351.09,92.15,342.55,97.08Z" style="fill:#F3CC19"></path><path d="M348.14,116.8l.93-10.38a3.46,3.46,0,0,1,1-1.93A55.25,55.25,0,0,0,355.22,99a1.81,1.81,0,0,1,1.84-.52l6,2.09a1.44,1.44,0,0,0,1.68-.62l6.86-11.88a1.46,1.46,0,0,0-.3-1.77l-4.8-4.14a1.78,1.78,0,0,1-.47-1.84,56.18,56.18,0,0,0,2.16-7.23,3.48,3.48,0,0,1,1.19-1.81l8.52-6a2.49,2.49,0,0,0,.95-1.83V52.68a.7.7,0,0,0-1.06-.69l-8.3,3.74a1,1,0,0,1-1.38-.64A18.64,18.64,0,0,0,366.24,51a2.32,2.32,0,0,1-.13-2l5.54-11.15a1.27,1.27,0,0,0-.5-1.63l-6-3.46a1.25,1.25,0,0,0-1.65.38l-6.9,10.37a2.26,2.26,0,0,1-1.8.9,18.18,18.18,0,0,0-4.49.46,1,1,0,0,1-1.25-.88l-.91-9.06a.7.7,0,0,0-1.13-.58L337.7,39.7a2.47,2.47,0,0,0-1.11,1.74l-.94,10.38a3.46,3.46,0,0,1-1,1.93,57.62,57.62,0,0,0-5.18,5.49,1.8,1.8,0,0,1-1.83.52l-6-2.09a1.44,1.44,0,0,0-1.68.62l-6.86,11.88a1.46,1.46,0,0,0,.3,1.77l4.81,4.14a1.77,1.77,0,0,1,.46,1.84,56.18,56.18,0,0,0-2.16,7.23A3.42,3.42,0,0,1,315.36,87l-8.52,6a2.49,2.49,0,0,0-.95,1.83v10.77a.7.7,0,0,0,1.06.69l8.3-3.74a1,1,0,0,1,1.38.64,19.11,19.11,0,0,0,1.85,4.11,2.28,2.28,0,0,1,.13,2l-5.53,11.15a1.25,1.25,0,0,0,.49,1.63l6,3.47a1.27,1.27,0,0,0,1.66-.39l6.89-10.37a2.28,2.28,0,0,1,1.81-.9,18.27,18.27,0,0,0,4.49-.46,1,1,0,0,1,1.24.88l.91,9.06a.7.7,0,0,0,1.13.58l9.32-5.39A2.52,2.52,0,0,0,348.14,116.8Zm-5.59-19.72C334,102,327.1,98,327.1,88.15S334,66.31,342.55,61.39,358,60.45,358,70.31,351.09,92.15,342.55,97.08Z" style="fill:#fff;opacity:0.55"></path><path d="M368.09,55.09a1,1,0,0,0,1.38.64l8.3-3.74a.78.78,0,0,1,.73,0h0l-7-4.06h0a.78.78,0,0,0-.73,0L366,50.1a2.28,2.28,0,0,0,.28.88A18.64,18.64,0,0,1,368.09,55.09Zm-9.93-26.44a1.26,1.26,0,0,0-1.65.39l-6.9,10.37a2,2,0,0,1-.94.71l.39,3.83a1,1,0,0,0,1.25.88,18.18,18.18,0,0,1,4.49-.46,2.26,2.26,0,0,0,1.8-.9l6.9-10.37a1.25,1.25,0,0,1,1.65-.38l1.43.82h0Z" style="opacity:0.1"></path><g style="opacity:0.2"><path d="M356.78,63.05a8.52,8.52,0,0,0-3.08-3.14c-3.06-1.76-7.1-1.38-11.37,1.09-8.65,5-15.68,17.17-15.68,27.15,0,4.94,1.69,8.63,4.75,10.4s7.1,1.38,11.38-1.08c8.64-5,15.68-17.18,15.68-27.16A14.47,14.47,0,0,0,356.78,63.05ZM358,70.31c0,9.85-6.92,21.84-15.46,26.77S327.1,98,327.1,88.15,334,66.31,342.55,61.39,358,60.45,358,70.31Z" style="fill:#fff"></path><path d="M363.5,33.1l-6.9,10.37a2.26,2.26,0,0,1-1.8.9,18.18,18.18,0,0,0-4.49.46,1,1,0,0,1-1.25-.88l-.91-9.06a.7.7,0,0,0-1.13-.58L337.7,39.7a2.47,2.47,0,0,0-1.11,1.74l-.94,10.38a3.46,3.46,0,0,1-1,1.93,57.62,57.62,0,0,0-5.18,5.49,1.8,1.8,0,0,1-1.83.52l-6-2.09a1.44,1.44,0,0,0-1.68.62l-6.86,11.88a1.46,1.46,0,0,0,.3,1.77l4.81,4.14a1.77,1.77,0,0,1,.46,1.84,56.18,56.18,0,0,0-2.16,7.23A3.42,3.42,0,0,1,315.36,87l-8.52,6a2.49,2.49,0,0,0-.95,1.83v10.77a.7.7,0,0,0,1.06.69l8.3-3.74a1,1,0,0,1,1.38.64,19.11,19.11,0,0,0,1.85,4.11,2.28,2.28,0,0,1,.13,2l-5.53,11.15a1.25,1.25,0,0,0,.49,1.63l6,3.47a1.27,1.27,0,0,0,1.66-.39l6.89-10.37a2.28,2.28,0,0,1,1.81-.9,18.27,18.27,0,0,0,4.49-.46,1,1,0,0,1,1.24.88l.91,9.06a.7.7,0,0,0,1.13.58l9.32-5.39a2.52,2.52,0,0,0,1.12-1.74l.93-10.38a3.46,3.46,0,0,1,1-1.93A55.25,55.25,0,0,0,355.22,99a1.81,1.81,0,0,1,1.84-.52l6,2.09a1.44,1.44,0,0,0,1.68-.62l6.86-11.88a1.46,1.46,0,0,0-.3-1.77l-4.8-4.14a1.78,1.78,0,0,1-.47-1.84,56.18,56.18,0,0,0,2.16-7.23,3.48,3.48,0,0,1,1.19-1.81l8.52-6a2.49,2.49,0,0,0,.95-1.83V52.68a.7.7,0,0,0-1.06-.69l-8.3,3.74a1,1,0,0,1-1.38-.64A18.64,18.64,0,0,0,366.24,51a2.32,2.32,0,0,1-.13-2l5.53-11.15a1.25,1.25,0,0,0-.49-1.63l-6-3.46A1.25,1.25,0,0,0,363.5,33.1Zm1.42,0,6,3.47a.8.8,0,0,1,.3,1L365.7,48.76a2.78,2.78,0,0,0,.15,2.46,17.9,17.9,0,0,1,1.8,4,1.53,1.53,0,0,0,.81.94,1.44,1.44,0,0,0,1.2,0l8.3-3.74a.38.38,0,0,1,.32,0,.37.37,0,0,1,.1.3V63.45a2.1,2.1,0,0,1-.76,1.46l-8.52,6A3.92,3.92,0,0,0,367.72,73a53.84,53.84,0,0,1-2.14,7.17,2.24,2.24,0,0,0,.6,2.35l4.8,4.14a1,1,0,0,1,.2,1.19l-6.85,11.88a1,1,0,0,1-1.14.42l-6-2.09a2.26,2.26,0,0,0-2.34.66,55.8,55.8,0,0,1-5.14,5.44,3.8,3.8,0,0,0-1.11,2.23l-.94,10.38a2.09,2.09,0,0,1-.88,1.39l-9.33,5.38c-.13.08-.24.1-.31.06a.33.33,0,0,1-.13-.28l-.91-9.06a1.44,1.44,0,0,0-.59-1,1.46,1.46,0,0,0-1.21-.23,18.09,18.09,0,0,1-4.38.44,2.75,2.75,0,0,0-2.2,1.1l-6.9,10.37a.79.79,0,0,1-1,.25l-6-3.47a.79.79,0,0,1-.31-1L319,109.48a2.69,2.69,0,0,0-.15-2.46,18.1,18.1,0,0,1-1.8-4,1.52,1.52,0,0,0-.81-.94,1.48,1.48,0,0,0-1.2,0l-8.3,3.74a.35.35,0,0,1-.31,0,.31.31,0,0,1-.1-.3V94.79a2.09,2.09,0,0,1,.75-1.46l8.52-6A3.89,3.89,0,0,0,317,85.25a57,57,0,0,1,2.14-7.17,2.24,2.24,0,0,0-.6-2.35l-4.8-4.14a1,1,0,0,1-.2-1.19l6.86-11.88a1,1,0,0,1,1.13-.42l6,2.09a2.25,2.25,0,0,0,2.33-.66A55.8,55.8,0,0,1,335,54.09a3.88,3.88,0,0,0,1.12-2.23L337,41.48a2.1,2.1,0,0,1,.89-1.39l9.32-5.38c.13-.08.25-.1.31-.06a.33.33,0,0,1,.13.28L348.6,44a1.62,1.62,0,0,0,.2.62,1.44,1.44,0,0,0,1.6.66,18.14,18.14,0,0,1,4.38-.44,2.74,2.74,0,0,0,2.2-1.1l6.9-10.37A.79.79,0,0,1,364.92,33.11Z" style="fill:#fff"></path></g></g><g id="freepik--gear--inject-158"><path d="M394.36,89.51a1,1,0,0,0-1.26.3l-5.23,7.86a1.57,1.57,0,0,1-.71.54l-.39-4a.62.62,0,0,0-.27-.48h0l-5.31-3.09h0a.58.58,0,0,0-.58,0l-7.07,4.09a1.89,1.89,0,0,0-.85,1.32L372,104a2.61,2.61,0,0,1-.73,1.47,42.08,42.08,0,0,0-3.93,4.16,1.36,1.36,0,0,1-1.39.39l-4.54-1.58a1.12,1.12,0,0,0-1.28.47l-5.2,9a1.11,1.11,0,0,0,.23,1.34l3.64,3.14a1.35,1.35,0,0,1,.36,1.4,42.21,42.21,0,0,0-1.64,5.48,2.69,2.69,0,0,1-.91,1.38l-6.46,4.54a1.93,1.93,0,0,0-.72,1.4v8.17a.59.59,0,0,0,.24.52h0l5.32,3.09h0a.59.59,0,0,0,.55,0l3.65-1.65a1.54,1.54,0,0,1-.11.86l-4.2,8.46a1,1,0,0,0,.37,1.24l5.29,3.06,0,0,4.55,2.63a1,1,0,0,0,1.26-.3l5.23-7.86a1.59,1.59,0,0,1,.7-.54l.4,4a.64.64,0,0,0,.27.48h0l5.31,3.08h0a.58.58,0,0,0,.58,0l7.07-4.09a1.89,1.89,0,0,0,.85-1.32l.71-7.87a2.58,2.58,0,0,1,.73-1.47,43.22,43.22,0,0,0,3.93-4.16,1.33,1.33,0,0,1,1.39-.39l4.54,1.58a1.12,1.12,0,0,0,1.28-.47l5.2-9a1.11,1.11,0,0,0-.23-1.34l-3.64-3.14a1.36,1.36,0,0,1-.36-1.4,41.88,41.88,0,0,0,1.64-5.49,2.67,2.67,0,0,1,.91-1.37l6.46-4.55a1.89,1.89,0,0,0,.72-1.39v-8.17a.58.58,0,0,0-.25-.52h0l-5.3-3.09h0a.58.58,0,0,0-.56,0l-3.65,1.65a1.52,1.52,0,0,1,.11-.86l4.2-8.47a1,1,0,0,0-.37-1.23l-3.47-2h0ZM373,141.23a9.33,9.33,0,0,1-2.17-6.59c0-7.47,5.25-16.56,11.72-20.3a9.59,9.59,0,0,1,6.47-1.49c1.19,1.27,1.84,3.37,1.84,6.28,0,7.48-5.24,16.57-11.72,20.31A10.66,10.66,0,0,1,373,141.23Z" style="fill:#F3CC19"></path><path d="M394.36,89.51a1,1,0,0,0-1.26.3l-5.23,7.86a1.57,1.57,0,0,1-.71.54l-.39-4a.62.62,0,0,0-.27-.48h0l-5.31-3.09h0a.58.58,0,0,0-.58,0l-7.07,4.09a1.89,1.89,0,0,0-.85,1.32L372,104a2.61,2.61,0,0,1-.73,1.47,42.08,42.08,0,0,0-3.93,4.16,1.36,1.36,0,0,1-1.39.39l-4.54-1.58a1.12,1.12,0,0,0-1.28.47l-5.2,9a1.11,1.11,0,0,0,.23,1.34l3.64,3.14a1.35,1.35,0,0,1,.36,1.4,42.21,42.21,0,0,0-1.64,5.48,2.69,2.69,0,0,1-.91,1.38l-6.46,4.54a1.93,1.93,0,0,0-.72,1.4v8.17a.59.59,0,0,0,.24.52h0l5.32,3.09h0a.59.59,0,0,0,.55,0l3.65-1.65a1.54,1.54,0,0,1-.11.86l-4.2,8.46a1,1,0,0,0,.37,1.24l5.29,3.06,0,0,4.55,2.63a1,1,0,0,0,1.26-.3l5.23-7.86a1.59,1.59,0,0,1,.7-.54l.4,4a.64.64,0,0,0,.27.48h0l5.31,3.08h0a.58.58,0,0,0,.58,0l7.07-4.09a1.89,1.89,0,0,0,.85-1.32l.71-7.87a2.58,2.58,0,0,1,.73-1.47,43.22,43.22,0,0,0,3.93-4.16,1.33,1.33,0,0,1,1.39-.39l4.54,1.58a1.12,1.12,0,0,0,1.28-.47l5.2-9a1.11,1.11,0,0,0-.23-1.34l-3.64-3.14a1.36,1.36,0,0,1-.36-1.4,41.88,41.88,0,0,0,1.64-5.49,2.67,2.67,0,0,1,.91-1.37l6.46-4.55a1.89,1.89,0,0,0,.72-1.39v-8.17a.58.58,0,0,0-.25-.52h0l-5.3-3.09h0a.58.58,0,0,0-.56,0l-3.65,1.65a1.52,1.52,0,0,1,.11-.86l4.2-8.47a1,1,0,0,0-.37-1.23l-3.47-2h0ZM373,141.23a9.33,9.33,0,0,1-2.17-6.59c0-7.47,5.25-16.56,11.72-20.3a9.59,9.59,0,0,1,6.47-1.49c1.19,1.27,1.84,3.37,1.84,6.28,0,7.48-5.24,16.57-11.72,20.31A10.66,10.66,0,0,1,373,141.23Z" style="fill:#fff;opacity:0.30000000000000004"></path><path d="M389,112.85c1.19,1.26,1.85,3.36,1.86,6.28,0,7.48-5.25,16.57-11.73,20.31a10.66,10.66,0,0,1-6.14,1.79c2.12,2.22,5.61,2.46,9.55.18,6.47-3.74,11.72-12.83,11.72-20.3C394.24,116.39,392.15,113.44,389,112.85Z" style="opacity:0.1"></path><path d="M372.94,158.74l5.32,3.08h0l-.1-.07a.68.68,0,0,1-.18-.41l-.69-6.87a.74.74,0,0,0-.31-.56.79.79,0,0,0-.63-.11,14.58,14.58,0,0,1-3.41.35,1.6,1.6,0,0,0-.66.14l.4,4a.6.6,0,0,0,.27.47Zm-13.88-11.16-4.2,8.46a1,1,0,0,0,.37,1.24l5.29,3.06a1,1,0,0,1-.36-1.22l4.2-8.46a1.41,1.41,0,0,0,.12-.48l-5.3-3.07A1.41,1.41,0,0,1,359.06,147.58ZM372.9,95.51a1.75,1.75,0,0,0-.21.62L372,104a2.3,2.3,0,0,1-.21.7l5.31,3.07a2.17,2.17,0,0,0,.21-.69l.71-7.87a1.57,1.57,0,0,1,.21-.62Zm-7,16-5.31-3.08a1.07,1.07,0,0,0-.51.43l-5.2,9a1.12,1.12,0,0,0,0,1l5.29,3a1.1,1.1,0,0,1,0-1l5.21-9A1,1,0,0,1,365.93,111.56ZM355.1,138.63l-5.31-3.07a1.92,1.92,0,0,0-.38,1v8.17a.59.59,0,0,0,.24.52h0l5.32,3.09h0a.56.56,0,0,1-.26-.52v-8.17A1.89,1.89,0,0,1,355.1,138.63Z" style="fill:#F3CC19"></path><path d="M372.94,158.74l5.32,3.08h0l-.1-.07a.68.68,0,0,1-.18-.41l-.69-6.87a.74.74,0,0,0-.31-.56.79.79,0,0,0-.63-.11,14.58,14.58,0,0,1-3.41.35,1.6,1.6,0,0,0-.66.14l.4,4a.6.6,0,0,0,.27.47Zm-13.88-11.16-4.2,8.46a1,1,0,0,0,.37,1.24l5.29,3.06a1,1,0,0,1-.36-1.22l4.2-8.46a1.41,1.41,0,0,0,.12-.48l-5.3-3.07A1.41,1.41,0,0,1,359.06,147.58ZM372.9,95.51a1.75,1.75,0,0,0-.21.62L372,104a2.3,2.3,0,0,1-.21.7l5.31,3.07a2.17,2.17,0,0,0,.21-.69l.71-7.87a1.57,1.57,0,0,1,.21-.62Zm-7,16-5.31-3.08a1.07,1.07,0,0,0-.51.43l-5.2,9a1.12,1.12,0,0,0,0,1l5.29,3a1.1,1.1,0,0,1,0-1l5.21-9A1,1,0,0,1,365.93,111.56ZM355.1,138.63l-5.31-3.07a1.92,1.92,0,0,0-.38,1v8.17a.59.59,0,0,0,.24.52h0l5.32,3.09h0a.56.56,0,0,1-.26-.52v-8.17A1.89,1.89,0,0,1,355.1,138.63Z" style="fill:#fff;opacity:0.7000000000000001"></path><path d="M386.76,156.37l.71-7.87a2.58,2.58,0,0,1,.73-1.47,43.22,43.22,0,0,0,3.93-4.16,1.33,1.33,0,0,1,1.39-.39l4.54,1.58a1.12,1.12,0,0,0,1.28-.47l5.2-9a1.11,1.11,0,0,0-.23-1.34l-3.64-3.14a1.36,1.36,0,0,1-.36-1.4,41.88,41.88,0,0,0,1.64-5.49,2.67,2.67,0,0,1,.91-1.37l6.46-4.55a1.89,1.89,0,0,0,.72-1.39v-8.17a.52.52,0,0,0-.8-.52l-6.3,2.84a.75.75,0,0,1-1.05-.48,14.7,14.7,0,0,0-1.4-3.13,1.7,1.7,0,0,1-.1-1.52l4.2-8.47a1,1,0,0,0-.37-1.23l-4.56-2.63a1,1,0,0,0-1.25.3l-5.23,7.86a1.75,1.75,0,0,1-1.37.68,14.17,14.17,0,0,0-3.41.35.75.75,0,0,1-.94-.67l-.69-6.87a.53.53,0,0,0-.86-.44l-7.07,4.09a1.88,1.88,0,0,0-.84,1.32l-.71,7.87a2.65,2.65,0,0,1-.74,1.47,42.08,42.08,0,0,0-3.93,4.16,1.36,1.36,0,0,1-1.39.39l-4.54-1.58a1.1,1.1,0,0,0-1.27.47l-5.21,9a1.11,1.11,0,0,0,.23,1.34l3.65,3.14a1.37,1.37,0,0,1,.35,1.4,42.21,42.21,0,0,0-1.64,5.48,2.64,2.64,0,0,1-.9,1.38l-6.47,4.55a1.89,1.89,0,0,0-.72,1.39v8.17a.53.53,0,0,0,.81.52l6.29-2.84a.75.75,0,0,1,1.05.48,14.23,14.23,0,0,0,1.41,3.13,1.73,1.73,0,0,1,.09,1.52l-4.2,8.46a1,1,0,0,0,.38,1.24l4.55,2.63a1,1,0,0,0,1.26-.3l5.23-7.86a1.7,1.7,0,0,1,1.36-.68,14.58,14.58,0,0,0,3.41-.35.75.75,0,0,1,.95.67l.69,6.87a.53.53,0,0,0,.85.44l7.07-4.09A1.89,1.89,0,0,0,386.76,156.37Zm-4.24-15c-6.47,3.74-11.72.71-11.72-6.77s5.25-16.56,11.72-20.3,11.72-.71,11.72,6.77S389,137.67,382.52,141.41Z" style="fill:#F3CC19"></path><path d="M386.76,156.37l.71-7.87a2.58,2.58,0,0,1,.73-1.47,43.22,43.22,0,0,0,3.93-4.16,1.33,1.33,0,0,1,1.39-.39l4.54,1.58a1.12,1.12,0,0,0,1.28-.47l5.2-9a1.11,1.11,0,0,0-.23-1.34l-3.64-3.14a1.36,1.36,0,0,1-.36-1.4,41.88,41.88,0,0,0,1.64-5.49,2.67,2.67,0,0,1,.91-1.37l6.46-4.55a1.89,1.89,0,0,0,.72-1.39v-8.17a.52.52,0,0,0-.8-.52l-6.3,2.84a.75.75,0,0,1-1.05-.48,14.7,14.7,0,0,0-1.4-3.13,1.7,1.7,0,0,1-.1-1.52l4.2-8.47a1,1,0,0,0-.37-1.23l-4.56-2.63a1,1,0,0,0-1.25.3l-5.23,7.86a1.75,1.75,0,0,1-1.37.68,14.17,14.17,0,0,0-3.41.35.75.75,0,0,1-.94-.67l-.69-6.87a.53.53,0,0,0-.86-.44l-7.07,4.09a1.88,1.88,0,0,0-.84,1.32l-.71,7.87a2.65,2.65,0,0,1-.74,1.47,42.08,42.08,0,0,0-3.93,4.16,1.36,1.36,0,0,1-1.39.39l-4.54-1.58a1.1,1.1,0,0,0-1.27.47l-5.21,9a1.11,1.11,0,0,0,.23,1.34l3.65,3.14a1.37,1.37,0,0,1,.35,1.4,42.21,42.21,0,0,0-1.64,5.48,2.64,2.64,0,0,1-.9,1.38l-6.47,4.55a1.89,1.89,0,0,0-.72,1.39v8.17a.53.53,0,0,0,.81.52l6.29-2.84a.75.75,0,0,1,1.05.48,14.23,14.23,0,0,0,1.41,3.13,1.73,1.73,0,0,1,.09,1.52l-4.2,8.46a1,1,0,0,0,.38,1.24l4.55,2.63a1,1,0,0,0,1.26-.3l5.23-7.86a1.7,1.7,0,0,1,1.36-.68,14.58,14.58,0,0,0,3.41-.35.75.75,0,0,1,.95.67l.69,6.87a.53.53,0,0,0,.85.44l7.07-4.09A1.89,1.89,0,0,0,386.76,156.37Zm-4.24-15c-6.47,3.74-11.72.71-11.72-6.77s5.25-16.56,11.72-20.3,11.72-.71,11.72,6.77S389,137.67,382.52,141.41Z" style="fill:#fff;opacity:0.55"></path><path d="M401.89,109.57a.75.75,0,0,0,1.05.48l6.3-2.84a.59.59,0,0,1,.55,0h0l-5.3-3.09h0a.58.58,0,0,0-.56,0l-3.65,1.65a1.56,1.56,0,0,0,.21.66A14.7,14.7,0,0,1,401.89,109.57Zm-7.53-20.06a1,1,0,0,0-1.26.3l-5.23,7.86a1.57,1.57,0,0,1-.71.54l.3,2.9a.75.75,0,0,0,.94.67,14.17,14.17,0,0,1,3.41-.35,1.75,1.75,0,0,0,1.37-.68l5.23-7.86a1,1,0,0,1,1.25-.3l1.08.63h0Z" style="opacity:0.1"></path><g style="opacity:0.2"><path d="M393.31,115.6a6.42,6.42,0,0,0-2.33-2.38c-2.32-1.34-5.39-1-8.63.82-6.56,3.79-11.89,13-11.89,20.6,0,3.74,1.28,6.54,3.6,7.88s5.39,1,8.63-.82c6.56-3.78,11.89-13,11.89-20.59A11,11,0,0,0,393.31,115.6Zm.93,5.51c0,7.47-5.24,16.56-11.72,20.3s-11.72.71-11.72-6.77,5.25-16.56,11.72-20.3S394.24,113.63,394.24,121.11Z" style="fill:#fff"></path><path d="M398.41,92.89l-5.23,7.86a1.75,1.75,0,0,1-1.37.68,14.17,14.17,0,0,0-3.41.35.75.75,0,0,1-.94-.67l-.69-6.87a.53.53,0,0,0-.86-.44l-7.07,4.09a1.88,1.88,0,0,0-.84,1.32l-.71,7.87a2.65,2.65,0,0,1-.74,1.47,42.08,42.08,0,0,0-3.93,4.16,1.36,1.36,0,0,1-1.39.39l-4.54-1.58a1.1,1.1,0,0,0-1.27.47l-5.21,9a1.11,1.11,0,0,0,.23,1.34l3.65,3.14a1.37,1.37,0,0,1,.35,1.4,42.21,42.21,0,0,0-1.64,5.48,2.64,2.64,0,0,1-.9,1.38l-6.47,4.55a1.89,1.89,0,0,0-.72,1.39v8.17a.53.53,0,0,0,.81.52l6.29-2.84a.75.75,0,0,1,1.05.48,14.23,14.23,0,0,0,1.41,3.13,1.73,1.73,0,0,1,.09,1.52l-4.2,8.46a1,1,0,0,0,.38,1.24l4.55,2.63a1,1,0,0,0,1.26-.3l5.23-7.86a1.7,1.7,0,0,1,1.36-.68,14.58,14.58,0,0,0,3.41-.35.75.75,0,0,1,.95.67l.69,6.87a.53.53,0,0,0,.85.44l7.07-4.09a1.89,1.89,0,0,0,.85-1.32l.71-7.87a2.58,2.58,0,0,1,.73-1.47,43.22,43.22,0,0,0,3.93-4.16,1.33,1.33,0,0,1,1.39-.39l4.54,1.58a1.12,1.12,0,0,0,1.28-.47l5.2-9a1.11,1.11,0,0,0-.23-1.34l-3.64-3.14a1.36,1.36,0,0,1-.36-1.4,41.88,41.88,0,0,0,1.64-5.49,2.67,2.67,0,0,1,.91-1.37l6.46-4.55a1.89,1.89,0,0,0,.72-1.39v-8.17a.52.52,0,0,0-.8-.52l-6.3,2.84a.75.75,0,0,1-1.05-.48,14.7,14.7,0,0,0-1.4-3.13,1.7,1.7,0,0,1-.1-1.52l4.2-8.47a1,1,0,0,0-.37-1.23l-4.56-2.63A1,1,0,0,0,398.41,92.89Zm1.08,0L404,95.52a.62.62,0,0,1,.24.78l-4.2,8.46a2.11,2.11,0,0,0,.11,1.86,14.14,14.14,0,0,1,1.37,3,1.09,1.09,0,0,0,1.52.7l6.3-2.84c.1,0,.19-.06.24,0s.07.11.07.22v8.17a1.55,1.55,0,0,1-.57,1.11l-6.46,4.55a3,3,0,0,0-1.05,1.58,42.3,42.3,0,0,1-1.62,5.44,1.71,1.71,0,0,0,.45,1.78l3.64,3.14a.76.76,0,0,1,.16.91l-5.2,9a.76.76,0,0,1-.86.32l-4.54-1.58a1.71,1.71,0,0,0-1.78.5,41.51,41.51,0,0,1-3.89,4.12,2.91,2.91,0,0,0-.85,1.7l-.71,7.87a1.58,1.58,0,0,1-.67,1l-7.07,4.09a.28.28,0,0,1-.24,0c-.05,0-.09-.11-.1-.22l-.69-6.87a1.08,1.08,0,0,0-.44-.79,1.14,1.14,0,0,0-.92-.18,13.8,13.8,0,0,1-3.33.34,2.06,2.06,0,0,0-1.66.83l-5.23,7.87a.61.61,0,0,1-.79.19l-4.56-2.63a.61.61,0,0,1-.23-.78l4.19-8.46a2,2,0,0,0-.11-1.87,14.55,14.55,0,0,1-1.37-3,1.09,1.09,0,0,0-1.52-.7l-6.3,2.84a.24.24,0,0,1-.23,0,.25.25,0,0,1-.08-.22v-8.17a1.59,1.59,0,0,1,.57-1.11L362.1,134a3,3,0,0,0,1-1.58,44,44,0,0,1,1.62-5.44,1.71,1.71,0,0,0-.45-1.78l-3.64-3.14a.76.76,0,0,1-.16-.91l5.21-9a.76.76,0,0,1,.86-.32l4.54,1.59a1.69,1.69,0,0,0,1.77-.5,41.65,41.65,0,0,1,3.9-4.13,2.9,2.9,0,0,0,.84-1.69l.71-7.87a1.58,1.58,0,0,1,.67-1l7.08-4.09a.26.26,0,0,1,.23,0c.05,0,.09.1.1.21l.69,6.88a1.19,1.19,0,0,0,.15.46,1,1,0,0,0,.29.33,1.16,1.16,0,0,0,.93.18,13.72,13.72,0,0,1,3.32-.34,2.07,2.07,0,0,0,1.67-.84l5.23-7.86A.61.61,0,0,1,399.49,92.89Z" style="fill:#fff"></path></g></g><g id="freepik--gear--inject-158"><path d="M397.31,410.18h0a1,1,0,0,0,.59.85l2.26,1.17,1.32-.22a2.34,2.34,0,0,0,1.71-1.66,10.56,10.56,0,0,1,.51-1.42,1.47,1.47,0,0,0-.62-1.95l-5.26-2.72a1,1,0,0,1-.6-.83Zm19.27-2.26c-3.05,2.57-3.47,5.78-1.56,8.54a9.38,9.38,0,0,1,1.64-1.74c4.85-4.08,14.54-5,21.64-2a12.42,12.42,0,0,1,5.6,4.14c2.62-3.82.43-8.4-5.69-10.95C431.12,402.93,421.43,403.85,416.58,407.92Zm-23.13,13.23h0a1.22,1.22,0,0,0,.07.41l1.16,3.67a2,2,0,0,0,1.9,1.36l7.45-.21a3,3,0,0,1,1.15.24h0a3,3,0,0,1,.64.33l2.55-2.75a1.28,1.28,0,0,0-.21-1.93,17.88,17.88,0,0,1-1.79-1.64,4.16,4.16,0,0,0-1.26-.82,3,3,0,0,0-1.17-.25l-7.44.23a2.08,2.08,0,0,1-1.9-1.37l-1.17-3.67a1.89,1.89,0,0,1-.07-.39Zm60.26-22.57a1.08,1.08,0,0,1-.3.59l-2.92,3.15a1.28,1.28,0,0,0,.2,1.93,16.8,16.8,0,0,1,1.8,1.64,2.76,2.76,0,0,0,.62.48l.38-.41a1.05,1.05,0,0,0,.3-.73h0ZM405.22,434.9a1,1,0,0,0,.12.41,1.09,1.09,0,0,0,.57.47l6.55,2.73a1.29,1.29,0,0,0,.28.08.79.79,0,0,0,.22.05,3.65,3.65,0,0,0,1,0l.22-.05h0a2.45,2.45,0,0,0,.84-.31l4.35-2.9a4.06,4.06,0,0,1,2.62-.5c1.4.26,2.81.45,4.23.58a2.75,2.75,0,0,1,1.42.61,2.47,2.47,0,0,1,.37.35.66.66,0,0,1,.15.19.8.8,0,0,1,.18.27l1.66,3.22,0,.07a1.38,1.38,0,0,0,.17.25,1.12,1.12,0,0,0,.18.2l0,0a1.59,1.59,0,0,0,.24.2,2.35,2.35,0,0,0,.54.29,2.26,2.26,0,0,0,.91.15l8.13-.77a1.38,1.38,0,0,0,1.26-1.39l-.06-4.61a1.75,1.75,0,0,1,.84-.58,33.67,33.67,0,0,0,3.38-1.23,4.42,4.42,0,0,1,2.69-.15l.07,0,6.29,2.07a2.05,2.05,0,0,0,.34.07h.06a1.53,1.53,0,0,0,.37,0,2.81,2.81,0,0,0,1.73-.57l4.11-3.46a1.08,1.08,0,0,0,.41-.74l-.09-6.77a1,1,0,0,1-.4.71l-4.12,3.46a2.3,2.3,0,0,1-.91.46,2.74,2.74,0,0,1-1.58,0l-6.29-2.06-.07,0a4.42,4.42,0,0,0-2.69.15,29.5,29.5,0,0,1-3.39,1.22A1.78,1.78,0,0,0,441,429l.42,3.14a1.4,1.4,0,0,1-1.25,1.59l-8.13.77a2.09,2.09,0,0,1-.91-.14,2.38,2.38,0,0,1-1.21-1l-1.66-3.22a2.43,2.43,0,0,0-.7-.81,2.83,2.83,0,0,0-1.42-.61c-1.42-.13-2.84-.32-4.23-.58a4,4,0,0,0-2.62.5l-4.34,2.9a2.22,2.22,0,0,1-.85.33,3,3,0,0,1-1.71-.1L405.83,429a1,1,0,0,1-.69-.88Zm52.16-20.36a2.4,2.4,0,0,0-1.71,1.67,8.68,8.68,0,0,1-.52,1.42,1.47,1.47,0,0,0,.62,1.95l3,1.56,5.75-.94a1.19,1.19,0,0,0,1-1.18h0l-.08-6.82a1.2,1.2,0,0,1-1,1.19Z" style="fill:#e6e6e6"></path><path d="M397.31,410.18h0a1,1,0,0,0,.59.85l2.26,1.17,1.32-.22a2.34,2.34,0,0,0,1.71-1.66,10.56,10.56,0,0,1,.51-1.42,1.47,1.47,0,0,0-.62-1.95l-5.26-2.72a1,1,0,0,1-.6-.83Zm19.27-2.26c-3.05,2.57-3.47,5.78-1.56,8.54a9.38,9.38,0,0,1,1.64-1.74c4.85-4.08,14.54-5,21.64-2a12.42,12.42,0,0,1,5.6,4.14c2.62-3.82.43-8.4-5.69-10.95C431.12,402.93,421.43,403.85,416.58,407.92Zm-23.13,13.23h0a1.22,1.22,0,0,0,.07.41l1.16,3.67a2,2,0,0,0,1.9,1.36l7.45-.21a3,3,0,0,1,1.15.24h0a3,3,0,0,1,.64.33l2.55-2.75a1.28,1.28,0,0,0-.21-1.93,17.88,17.88,0,0,1-1.79-1.64,4.16,4.16,0,0,0-1.26-.82,3,3,0,0,0-1.17-.25l-7.44.23a2.08,2.08,0,0,1-1.9-1.37l-1.17-3.67a1.89,1.89,0,0,1-.07-.39Zm60.26-22.57a1.08,1.08,0,0,1-.3.59l-2.92,3.15a1.28,1.28,0,0,0,.2,1.93,16.8,16.8,0,0,1,1.8,1.64,2.76,2.76,0,0,0,.62.48l.38-.41a1.05,1.05,0,0,0,.3-.73h0ZM405.22,434.9a1,1,0,0,0,.12.41,1.09,1.09,0,0,0,.57.47l6.55,2.73a1.29,1.29,0,0,0,.28.08.79.79,0,0,0,.22.05,3.65,3.65,0,0,0,1,0l.22-.05h0a2.45,2.45,0,0,0,.84-.31l4.35-2.9a4.06,4.06,0,0,1,2.62-.5c1.4.26,2.81.45,4.23.58a2.75,2.75,0,0,1,1.42.61,2.47,2.47,0,0,1,.37.35.66.66,0,0,1,.15.19.8.8,0,0,1,.18.27l1.66,3.22,0,.07a1.38,1.38,0,0,0,.17.25,1.12,1.12,0,0,0,.18.2l0,0a1.59,1.59,0,0,0,.24.2,2.35,2.35,0,0,0,.54.29,2.26,2.26,0,0,0,.91.15l8.13-.77a1.38,1.38,0,0,0,1.26-1.39l-.06-4.61a1.75,1.75,0,0,1,.84-.58,33.67,33.67,0,0,0,3.38-1.23,4.42,4.42,0,0,1,2.69-.15l.07,0,6.29,2.07a2.05,2.05,0,0,0,.34.07h.06a1.53,1.53,0,0,0,.37,0,2.81,2.81,0,0,0,1.73-.57l4.11-3.46a1.08,1.08,0,0,0,.41-.74l-.09-6.77a1,1,0,0,1-.4.71l-4.12,3.46a2.3,2.3,0,0,1-.91.46,2.74,2.74,0,0,1-1.58,0l-6.29-2.06-.07,0a4.42,4.42,0,0,0-2.69.15,29.5,29.5,0,0,1-3.39,1.22A1.78,1.78,0,0,0,441,429l.42,3.14a1.4,1.4,0,0,1-1.25,1.59l-8.13.77a2.09,2.09,0,0,1-.91-.14,2.38,2.38,0,0,1-1.21-1l-1.66-3.22a2.43,2.43,0,0,0-.7-.81,2.83,2.83,0,0,0-1.42-.61c-1.42-.13-2.84-.32-4.23-.58a4,4,0,0,0-2.62.5l-4.34,2.9a2.22,2.22,0,0,1-.85.33,3,3,0,0,1-1.71-.1L405.83,429a1,1,0,0,1-.69-.88Zm52.16-20.36a2.4,2.4,0,0,0-1.71,1.67,8.68,8.68,0,0,1-.52,1.42,1.47,1.47,0,0,0,.62,1.95l3,1.56,5.75-.94a1.19,1.19,0,0,0,1-1.18h0l-.08-6.82a1.2,1.2,0,0,1-1,1.19Z" style="opacity:0.1"></path><path d="M448.33,425.77l6.29,2.06a2.74,2.74,0,0,0,1.58,0l.09,6.78a3.79,3.79,0,0,1-.82.13,1.53,1.53,0,0,1-.37,0H455a2.05,2.05,0,0,1-.34-.07l-6.29-2.07Z" style="fill:#e0e0e0"></path><path d="M427.54,429.26a2.43,2.43,0,0,1,.7.81l1.66,3.22a2.38,2.38,0,0,0,1.21,1l.08,6.79a2.35,2.35,0,0,1-.54-.29,1.59,1.59,0,0,1-.24-.2l0,0a1.12,1.12,0,0,1-.18-.2,1.38,1.38,0,0,1-.17-.25l0-.07-1.66-3.22a.8.8,0,0,0-.18-.27.9.9,0,0,0-.15-.19,4,4,0,0,0-.37-.33v0Z" style="fill:#e0e0e0"></path><path d="M397.22,403.41a1,1,0,0,0,.61.82l5.26,2.72a1.47,1.47,0,0,1,.62,1.95,9.83,9.83,0,0,0-.52,1.43,2.35,2.35,0,0,1-1.71,1.66l-1.31.21L397.92,411a1,1,0,0,1-.6-.85h0Z" style="fill:#e0e0e0"></path><path d="M393.37,414.37a1.89,1.89,0,0,0,.07.39l1.17,3.67a2.08,2.08,0,0,0,1.9,1.37l7.44-.23a3,3,0,0,1,1.17.25l.07,6.8a3,3,0,0,0-1.15-.24l-7.45.21a2,2,0,0,1-1.9-1.36l-1.16-3.67a1.22,1.22,0,0,1-.07-.41h0Z" style="fill:#e0e0e0"></path><path d="M405.14,428.1a1,1,0,0,0,.69.88l6.54,2.72a3,3,0,0,0,1.71.1l.09,6.79-.22.05a3.65,3.65,0,0,1-1,0,.79.79,0,0,1-.22-.05,1.29,1.29,0,0,1-.28-.08l-6.55-2.73a1.09,1.09,0,0,1-.57-.47,1,1,0,0,1-.12-.41Z" style="fill:#e0e0e0"></path><path d="M401.75,399.17l-4.12,3.46a.9.9,0,0,0,.2,1.6l5.26,2.72a1.47,1.47,0,0,1,.62,1.95,11.61,11.61,0,0,0-.52,1.42,2.32,2.32,0,0,1-1.71,1.66l-7.06,1.15a1.22,1.22,0,0,0-1,1.64l1.17,3.66a2,2,0,0,0,1.9,1.36l7.44-.21a3.7,3.7,0,0,1,2.42,1.06,17.92,17.92,0,0,0,1.8,1.64,1.28,1.28,0,0,1,.21,1.93l-2.92,3.15a.94.94,0,0,0,.37,1.62l6.54,2.73a3,3,0,0,0,2.55-.24l4.35-2.9a4,4,0,0,1,2.62-.5c1.4.26,2.81.45,4.23.58a2.9,2.9,0,0,1,2.12,1.42l1.66,3.22a2.34,2.34,0,0,0,2.12,1.18l8.13-.77a1.39,1.39,0,0,0,1.25-1.59L441,429a1.74,1.74,0,0,1,1.19-1.85,33.86,33.86,0,0,0,3.39-1.23,4.42,4.42,0,0,1,2.69-.15l6.36,2.09a2.9,2.9,0,0,0,2.49-.47l4.12-3.46a.9.9,0,0,0-.2-1.6l-5.26-2.72a1.47,1.47,0,0,1-.62-1.95,11.61,11.61,0,0,0,.52-1.42,2.32,2.32,0,0,1,1.71-1.66l7.06-1.15a1.22,1.22,0,0,0,1-1.64l-1.17-3.66a2.06,2.06,0,0,0-1.9-1.36l-7.44.21a3.7,3.7,0,0,1-2.42-1.06,17.92,17.92,0,0,0-1.8-1.64,1.28,1.28,0,0,1-.2-1.93l2.91-3.15a.94.94,0,0,0-.37-1.62l-6.54-2.73a3,3,0,0,0-2.55.24l-4.35,2.9a4,4,0,0,1-2.62.5c-1.39-.26-2.81-.45-4.23-.58a2.9,2.9,0,0,1-2.12-1.42L429,393.24a2.34,2.34,0,0,0-2.12-1.18l-8.13.77a1.4,1.4,0,0,0-1.25,1.59l.41,3.14a1.74,1.74,0,0,1-1.19,1.85,32.79,32.79,0,0,0-3.38,1.23,4.45,4.45,0,0,1-2.7.15l-6.36-2.09A2.9,2.9,0,0,0,401.75,399.17Zm36.46,6.72c7.1,2.95,8.92,8.64,4.07,12.72s-14.54,5-21.63,2-8.92-8.64-4.07-12.72S431.12,402.94,438.21,405.89Z" style="fill:#ebebeb"></path></g><g id="freepik--gear--inject-158"><path d="M355.18,443.24h0a.79.79,0,0,0,.47.68l1.8.93,1.05-.17a1.92,1.92,0,0,0,1.37-1.33,7.33,7.33,0,0,1,.41-1.13,1.19,1.19,0,0,0-.5-1.56l-4.19-2.17a.77.77,0,0,1-.48-.66Zm15.37-1.8c-2.44,2.05-2.77,4.61-1.25,6.81a7.66,7.66,0,0,1,1.31-1.4c3.87-3.24,11.59-4,17.25-1.62a10,10,0,0,1,4.47,3.31c2.09-3.05.34-6.7-4.54-8.73C382.13,437.46,374.41,438.19,370.55,441.44ZM352.11,452h0a1,1,0,0,0,.05.33l.92,2.92a1.64,1.64,0,0,0,1.51,1.09l5.94-.17a2.28,2.28,0,0,1,.92.2h0a2.45,2.45,0,0,1,.51.26l2-2.19a1,1,0,0,0-.17-1.54,15.18,15.18,0,0,1-1.43-1.3,3.2,3.2,0,0,0-1-.65,2.37,2.37,0,0,0-.93-.2l-5.94.18a1.66,1.66,0,0,1-1.51-1.09l-.93-2.93a1.21,1.21,0,0,1-.06-.31Zm48-18a.85.85,0,0,1-.24.47L397.58,437a1,1,0,0,0,.16,1.54,13.05,13.05,0,0,1,1.44,1.31,2.44,2.44,0,0,0,.49.38l.3-.32a.84.84,0,0,0,.24-.59h0Zm-38.66,28.95a.74.74,0,0,0,.09.33.83.83,0,0,0,.46.37l5.22,2.18.22.07.18,0a3,3,0,0,0,.79,0l.17,0h0a1.91,1.91,0,0,0,.67-.25l3.46-2.31a3.26,3.26,0,0,1,2.1-.4c1.11.21,2.23.36,3.36.46a2.21,2.21,0,0,1,1.14.49,1.94,1.94,0,0,1,.29.28.93.93,0,0,1,.13.15,1.53,1.53,0,0,1,.14.21l1.32,2.57,0,.06a1.27,1.27,0,0,0,.13.19,1.22,1.22,0,0,0,.15.17h0a1.08,1.08,0,0,0,.2.16,1.44,1.44,0,0,0,.42.23,1.7,1.7,0,0,0,.73.12l6.48-.61a1.11,1.11,0,0,0,1-1.11l-.05-3.67a1.33,1.33,0,0,1,.67-.47,27.55,27.55,0,0,0,2.69-1,3.44,3.44,0,0,1,2.15-.13l.05,0,5,1.65a.9.9,0,0,0,.27.07h.05a1.38,1.38,0,0,0,.29,0,2.28,2.28,0,0,0,1.38-.45l3.28-2.77a.84.84,0,0,0,.32-.58l-.07-5.4a.82.82,0,0,1-.32.57l-3.28,2.75a1.89,1.89,0,0,1-.72.37,2.29,2.29,0,0,1-1.27,0l-5-1.64-.06,0a3.51,3.51,0,0,0-2.15.11,24.42,24.42,0,0,1-2.69,1,1.4,1.4,0,0,0-1,1.48l.33,2.5a1.11,1.11,0,0,1-1,1.27l-6.48.61a1.55,1.55,0,0,1-.73-.11,1.83,1.83,0,0,1-1-.83l-1.33-2.57a2,2,0,0,0-.55-.64,2.3,2.3,0,0,0-1.14-.49c-1.13-.1-2.26-.25-3.37-.46a3.23,3.23,0,0,0-2.09.4l-3.46,2.31a1.79,1.79,0,0,1-.68.26,2.31,2.31,0,0,1-1.36-.07L362,458.23a.81.81,0,0,1-.55-.71Zm41.58-16.23a1.9,1.9,0,0,0-1.36,1.33,7,7,0,0,1-.42,1.13,1.18,1.18,0,0,0,.5,1.56l2.39,1.24,4.59-.74a.94.94,0,0,0,.82-.94h0l-.06-5.43a1,1,0,0,1-.83.94Z" style="fill:#e6e6e6"></path><path d="M355.18,443.24h0a.79.79,0,0,0,.47.68l1.8.93,1.05-.17a1.92,1.92,0,0,0,1.37-1.33,7.33,7.33,0,0,1,.41-1.13,1.19,1.19,0,0,0-.5-1.56l-4.19-2.17a.77.77,0,0,1-.48-.66Zm15.37-1.8c-2.44,2.05-2.77,4.61-1.25,6.81a7.66,7.66,0,0,1,1.31-1.4c3.87-3.24,11.59-4,17.25-1.62a10,10,0,0,1,4.47,3.31c2.09-3.05.34-6.7-4.54-8.73C382.13,437.46,374.41,438.19,370.55,441.44ZM352.11,452h0a1,1,0,0,0,.05.33l.92,2.92a1.64,1.64,0,0,0,1.51,1.09l5.94-.17a2.28,2.28,0,0,1,.92.2h0a2.45,2.45,0,0,1,.51.26l2-2.19a1,1,0,0,0-.17-1.54,15.18,15.18,0,0,1-1.43-1.3,3.2,3.2,0,0,0-1-.65,2.37,2.37,0,0,0-.93-.2l-5.94.18a1.66,1.66,0,0,1-1.51-1.09l-.93-2.93a1.21,1.21,0,0,1-.06-.31Zm48-18a.85.85,0,0,1-.24.47L397.58,437a1,1,0,0,0,.16,1.54,13.05,13.05,0,0,1,1.44,1.31,2.44,2.44,0,0,0,.49.38l.3-.32a.84.84,0,0,0,.24-.59h0Zm-38.66,28.95a.74.74,0,0,0,.09.33.83.83,0,0,0,.46.37l5.22,2.18.22.07.18,0a3,3,0,0,0,.79,0l.17,0h0a1.91,1.91,0,0,0,.67-.25l3.46-2.31a3.26,3.26,0,0,1,2.1-.4c1.11.21,2.23.36,3.36.46a2.21,2.21,0,0,1,1.14.49,1.94,1.94,0,0,1,.29.28.93.93,0,0,1,.13.15,1.53,1.53,0,0,1,.14.21l1.32,2.57,0,.06a1.27,1.27,0,0,0,.13.19,1.22,1.22,0,0,0,.15.17h0a1.08,1.08,0,0,0,.2.16,1.44,1.44,0,0,0,.42.23,1.7,1.7,0,0,0,.73.12l6.48-.61a1.11,1.11,0,0,0,1-1.11l-.05-3.67a1.33,1.33,0,0,1,.67-.47,27.55,27.55,0,0,0,2.69-1,3.44,3.44,0,0,1,2.15-.13l.05,0,5,1.65a.9.9,0,0,0,.27.07h.05a1.38,1.38,0,0,0,.29,0,2.28,2.28,0,0,0,1.38-.45l3.28-2.77a.84.84,0,0,0,.32-.58l-.07-5.4a.82.82,0,0,1-.32.57l-3.28,2.75a1.89,1.89,0,0,1-.72.37,2.29,2.29,0,0,1-1.27,0l-5-1.64-.06,0a3.51,3.51,0,0,0-2.15.11,24.42,24.42,0,0,1-2.69,1,1.4,1.4,0,0,0-1,1.48l.33,2.5a1.11,1.11,0,0,1-1,1.27l-6.48.61a1.55,1.55,0,0,1-.73-.11,1.83,1.83,0,0,1-1-.83l-1.33-2.57a2,2,0,0,0-.55-.64,2.3,2.3,0,0,0-1.14-.49c-1.13-.1-2.26-.25-3.37-.46a3.23,3.23,0,0,0-2.09.4l-3.46,2.31a1.79,1.79,0,0,1-.68.26,2.31,2.31,0,0,1-1.36-.07L362,458.23a.81.81,0,0,1-.55-.71Zm41.58-16.23a1.9,1.9,0,0,0-1.36,1.33,7,7,0,0,1-.42,1.13,1.18,1.18,0,0,0,.5,1.56l2.39,1.24,4.59-.74a.94.94,0,0,0,.82-.94h0l-.06-5.43a1,1,0,0,1-.83.94Z" style="opacity:0.1"></path><path d="M395.86,455.67l5,1.64a2.29,2.29,0,0,0,1.27,0l.06,5.4a2.85,2.85,0,0,1-.65.11,1.38,1.38,0,0,1-.29,0h-.05a.9.9,0,0,1-.27-.07l-5-1.65Z" style="fill:#e0e0e0"></path><path d="M379.29,458.45a2,2,0,0,1,.55.64l1.33,2.57a1.83,1.83,0,0,0,1,.83l.06,5.41a1.44,1.44,0,0,1-.42-.23,1.08,1.08,0,0,1-.2-.16h0a1.22,1.22,0,0,1-.15-.17,1.27,1.27,0,0,1-.13-.19l0-.06-1.32-2.57a1.53,1.53,0,0,0-.14-.21l-.13-.15a3.84,3.84,0,0,0-.29-.27h0Z" style="fill:#e0e0e0"></path><path d="M355.11,437.84a.78.78,0,0,0,.49.65l4.19,2.17a1.17,1.17,0,0,1,.49,1.56,10.26,10.26,0,0,0-.41,1.13,1.87,1.87,0,0,1-1.36,1.33l-1,.16-1.8-.93a.77.77,0,0,1-.48-.67h0Z" style="fill:#e0e0e0"></path><path d="M352,446.58a1.21,1.21,0,0,0,.06.31l.93,2.93a1.66,1.66,0,0,0,1.51,1.09l5.94-.18a2.37,2.37,0,0,1,.93.2l0,5.42a2.28,2.28,0,0,0-.92-.2l-5.94.17a1.64,1.64,0,0,1-1.51-1.09l-.92-2.92a1,1,0,0,1-.05-.33h0Z" style="fill:#e0e0e0"></path><path d="M361.42,457.52a.81.81,0,0,0,.55.71l5.22,2.17a2.31,2.31,0,0,0,1.36.07l.07,5.42-.17,0a3,3,0,0,1-.79,0l-.18,0-.22-.07L362,463.64a.83.83,0,0,1-.46-.37.74.74,0,0,1-.09-.33Z" style="fill:#e0e0e0"></path><path d="M358.72,434.46l-3.28,2.76a.71.71,0,0,0,.16,1.27l4.19,2.17a1.19,1.19,0,0,1,.5,1.56,8.12,8.12,0,0,0-.42,1.13,1.89,1.89,0,0,1-1.36,1.33l-5.63.91a1,1,0,0,0-.78,1.3l.93,2.92a1.64,1.64,0,0,0,1.51,1.09l5.94-.17a3,3,0,0,1,1.93.85,15.06,15.06,0,0,0,1.43,1.3,1,1,0,0,1,.16,1.54l-2.32,2.52a.75.75,0,0,0,.29,1.29l5.22,2.17a2.4,2.4,0,0,0,2-.19l3.47-2.31a3.23,3.23,0,0,1,2.09-.4c1.11.21,2.24.36,3.37.46a2.32,2.32,0,0,1,1.69,1.13l1.33,2.57a1.84,1.84,0,0,0,1.68.94l6.49-.61a1.11,1.11,0,0,0,1-1.27l-.33-2.5a1.41,1.41,0,0,1,1-1.48,24.42,24.42,0,0,0,2.69-1,3.44,3.44,0,0,1,2.15-.11l5.07,1.66a2.35,2.35,0,0,0,2-.37l3.28-2.76a.72.72,0,0,0-.16-1.28l-4.19-2.17a1.16,1.16,0,0,1-.49-1.55,10.41,10.41,0,0,0,.41-1.14,1.86,1.86,0,0,1,1.36-1.32l5.63-.91a1,1,0,0,0,.78-1.31l-.93-2.92a1.64,1.64,0,0,0-1.51-1.09l-5.93.17a2.92,2.92,0,0,1-1.93-.85,16.7,16.7,0,0,0-1.44-1.3,1,1,0,0,1-.16-1.54l2.32-2.51a.75.75,0,0,0-.29-1.29L394.39,431a2.44,2.44,0,0,0-2,.19l-3.47,2.31a3.23,3.23,0,0,1-2.09.4c-1.11-.21-2.24-.36-3.37-.46a2.29,2.29,0,0,1-1.69-1.13l-1.33-2.57a1.84,1.84,0,0,0-1.68-.94l-6.49.61a1.11,1.11,0,0,0-1,1.27l.33,2.51a1.39,1.39,0,0,1-1,1.47,24.42,24.42,0,0,0-2.69,1,3.52,3.52,0,0,1-2.15.12l-5.07-1.67A2.32,2.32,0,0,0,358.72,434.46Zm29.07,5.35c5.66,2.36,7.11,6.9,3.24,10.15s-11.58,4-17.24,1.62-7.11-6.89-3.24-10.14S382.14,437.46,387.79,439.81Z" style="fill:#ebebeb"></path></g></g><g id="freepik--speech-bubbles--inject-158"><g id="freepik--speech-bubbles--inject-158"><g id="freepik--speech-bubble--inject-158"><path d="M186,94.91a1.82,1.82,0,0,1-1-.29,2.75,2.75,0,0,1-1.09-2.46V66.73a7.33,7.33,0,0,1,3-5.7l37.37-23.49a2.28,2.28,0,0,1,2.5-.21,2.75,2.75,0,0,1,1.09,2.46V65.22a7.35,7.35,0,0,1-3,5.71l-5.54,3.48L215.6,88.24a1.32,1.32,0,0,1-1.17,1,1.31,1.31,0,0,1-1.29-.86l-3.21-8.08-22.42,14.1A2.92,2.92,0,0,1,186,94.91ZM224.88,38.6,187.51,62.09a6.15,6.15,0,0,0-2.46,4.64V92.16a1.62,1.62,0,0,0,.52,1.4,1.32,1.32,0,0,0,1.37-.21l23.52-14.78,3.72,9.34c0,.11.1.13.18.12a.17.17,0,0,0,.16-.14l3.86-14.3,5.93-3.73a6.15,6.15,0,0,0,2.46-4.64V39.79a1.62,1.62,0,0,0-.52-1.4,1.34,1.34,0,0,0-1.37.21Z" style="fill:#e0e0e0"></path><path d="M193.06,69.25a.55.55,0,0,1-.49-.31.64.64,0,0,1,.2-.84l25.71-16.16a.54.54,0,0,1,.77.23.64.64,0,0,1-.2.84L193.34,69.17A.5.5,0,0,1,193.06,69.25Z" style="fill:#e0e0e0"></path><path d="M193.06,74.67a.55.55,0,0,1-.49-.31.64.64,0,0,1,.2-.84l25.71-16.16a.54.54,0,0,1,.77.23.64.64,0,0,1-.2.84L193.34,74.59A.5.5,0,0,1,193.06,74.67Z" style="fill:#e0e0e0"></path><path d="M193.06,80.09a.55.55,0,0,1-.49-.31.64.64,0,0,1,.2-.84l25.71-16.16a.53.53,0,0,1,.77.23.64.64,0,0,1-.2.84L193.34,80A.6.6,0,0,1,193.06,80.09Z" style="fill:#e0e0e0"></path></g><g id="freepik--speech-bubble--inject-158"><path d="M265.89,26.68a2.31,2.31,0,0,0-2.51.21L229.1,48.44v1.42L264,28a1.32,1.32,0,0,1,1.37-.21,1.6,1.6,0,0,1,.52,1.4V54.58a6.1,6.1,0,0,1-2.46,4.63l-5.92,3.73-3.87,14.3a.19.19,0,0,1-.16.15.17.17,0,0,1-.18-.12l-3.71-9.35L226,82.7a1.32,1.32,0,0,1-1.37.21,1.6,1.6,0,0,1-.52-1.4V73.25l-.61.34-.52.32v7.6A2.77,2.77,0,0,0,224.08,84a1.84,1.84,0,0,0,1,.28,2.92,2.92,0,0,0,1.5-.49L249,69.67l3.22,8.08a1.29,1.29,0,0,0,1.28.86,1.34,1.34,0,0,0,1.18-1l3.73-13.83L264,60.28a7.34,7.34,0,0,0,3-5.7V29.15A2.77,2.77,0,0,0,265.89,26.68Z" style="fill:#e0e0e0"></path><path d="M232.13,58.6a.55.55,0,0,1-.49-.3.64.64,0,0,1,.21-.84L257.56,41.3a.54.54,0,0,1,.77.22.65.65,0,0,1-.21.84L232.41,58.52A.48.48,0,0,1,232.13,58.6Z" style="fill:#e0e0e0"></path><path d="M232.13,64a.55.55,0,0,1-.49-.3.64.64,0,0,1,.21-.84l25.71-16.16a.54.54,0,0,1,.77.22.65.65,0,0,1-.21.84L232.41,63.94A.48.48,0,0,1,232.13,64Z" style="fill:#e0e0e0"></path><path d="M232.13,69.44a.55.55,0,0,1-.49-.3.64.64,0,0,1,.21-.84l25.71-16.16a.54.54,0,0,1,.77.22.65.65,0,0,1-.21.84L232.41,69.36A.48.48,0,0,1,232.13,69.44Z" style="fill:#e0e0e0"></path></g></g></g><g id="freepik--Character--inject-158"><g id="freepik--Bust--inject-158"><g id="freepik--Chest--inject-158"><path d="M370.12,359.18h0c-3.33-26.33-13.45-63.45-29.38-76.79h0c-17.57-18.59-41-15.6-58-9.53l-1.63,87.87c0,13.48,19.95,24.42,44.55,24.42C350.92,384.92,371.39,374.15,370.12,359.18Z" style="fill:#455a64"></path><path d="M356.69,391h0c0-32.34-13.64-68.6-19.18-80.07-11.86-24.53-31.43-47.91-82.66-33.63-31.9,8.89-61.56,22.63-83.49,33.44a56.35,56.35,0,0,0-9.65,6.13c-5.3,4.08-8.77,12.13-9.73,17.88-3.08,18.39-4.73,34.5-5.73,48.16a38.29,38.29,0,0,0-.3,4.53h0c-2.07,18,2.33,29.24,24.48,42,44.32,25.58,110.26,25.74,152.82,3.41C346.17,420.82,356.56,401.18,356.69,391Z" style="fill:#F3CC19"></path><path d="M171.36,310.71c-33,16.2-42.15,22.55-48.23,56.56-4,22.56-13.25,67.31-14,72.61s4.62,13.6,12.45,18.12c15.64,9,48.83,8.43,65.12-1.7,7.55-4.69,10.73-10.71,11.73-17.41h0l3.9-44.66S203.92,318.86,171.36,310.71Z" style="fill:#455a64"></path></g><g id="freepik--Head--inject-158"><path d="M331.71,178.07c7.79-19.33-1.07-44.42-11.35-56-14.87-16.8-37.46-23.58-71.14-20.54-25.61,2.31-50.55,13.68-54.61,40.14-24.94,8.7-22.22,39-16.67,53.79,11.26,30,31.8,53.39,38.53,72.35Z" style="fill:#263238"></path><path d="M331.9,249.61c-3.65,14.75-10.1,24.89-23.56,27.38-8.06,1.51-20.93,1.67-20.93,1.67l-1.33,23.21c8.79,6.62,20,26-.53,31s-61.28-9.62-76.25-30.58l1-61.84s-7.11,10.84-21,2.33c-9.53-5.88-18.24-22.73-11.83-37.46,6.36-14.47,22.91-13.28,29.17-5.27,3.69,4.73,5.4,12.37,12.81,11,5.48-1,6.9-5.27,8.16-8.81,2.25-6.19,3.77-14.14,3.65-27.8,3.72-2,8-4.37,10.36-8.47,3-5.25,2.77-12.2,11-21,12.44-13.31,60.84-15.91,72.81,2,5.74,10.87,8.43,40.82,9.1,57.36C335.27,224.43,335,237.27,331.9,249.61Z" style="fill:#c8856a"></path><path d="M287.41,278.66c-15-.42-45.67-6.92-53.92-15.06s-12.15-25.13-12.15-25.13,1.81,21.56,8.28,30.92,22.27,12.95,31.82,15.16a145.42,145.42,0,0,0,25.45,3.09Z" style="fill:#af6152"></path><path d="M273.85,196.48a6.27,6.27,0,1,1-6.38-6.41A6.36,6.36,0,0,1,273.85,196.48Z" style="fill:#263238"></path><path d="M269.5,231.78,294.89,239a13,13,0,0,1-16.08,9.52A13.83,13.83,0,0,1,269.5,231.78Z" style="fill:#af6152"></path><path d="M272,237.62a11.92,11.92,0,0,1,11,11.34,12.71,12.71,0,0,1-4.13-.41A13.55,13.55,0,0,1,269.37,238,11.8,11.8,0,0,1,272,237.62Z" style="fill:#ffa8a7"></path><path d="M322,193.3a6.31,6.31,0,1,1-6.43-6.46A6.41,6.41,0,0,1,322,193.3Z" style="fill:#263238"></path><path d="M325,181.22l-17-4.51a8.62,8.62,0,0,1,10.56-6.52A9.18,9.18,0,0,1,325,181.22Z" style="fill:#263238"></path><path d="M254.69,185.25l15.36-8.49A8.62,8.62,0,0,0,258.21,173,9.19,9.19,0,0,0,254.69,185.25Z" style="fill:#263238"></path><path d="M288.67,183.54l5.5,41.33,22.8-6.13C310.08,202.88,300,192.19,288.67,183.54Z" style="fill:#af6152"></path></g></g></g></svg>